Compagnon-Italique.ufo
<glyph name="exclam" format="1">
  <advance width="600"/>
  <unicode hex="0021"/>
  <outline>
    <contour>
      <point x="386.4" y="589.2" type="line"/>
      <point x="334.8" y="589.2" type="line"/>
      <point x="256.8" y="147.6" type="line"/>
      <point x="277.2" y="147.6" type="line"/>
    </contour>
    <contour>
      <point x="286.8" y="2.4" type="curve"/>
      <point x="297" y="12"/>
      <point x="302" y="24"/>
      <point x="302.4" y="37.2" type="curve" smooth="yes"/>
      <point x="303" y="64"/>
      <point x="279" y="88"/>
      <point x="250.8" y="88.8" type="curve" smooth="yes"/>
      <point x="223" y="90"/>
      <point x="199" y="64"/>
      <point x="199.2" y="37.2" type="curve" smooth="yes"/>
      <point x="199" y="10"/>
      <point x="223" y="-14"/>
      <point x="250.8" y="-13.2" type="curve" smooth="yes"/>
      <point x="265" y="-13"/>
      <point x="277" y="-9"/>
    </contour>
  </outline>
</glyph>
<glyph name="dollar" format="1">
  <advance width="600"/>
  <unicode hex="0024"/>
  <outline>
    <contour>
      <point x="458.4" y="179.4" type="curve"/>
      <point x="459.6" y="240.6"/>
      <point x="388.5" y="243.9"/>
      <point x="294.6" y="279" type="curve" smooth="yes"/>
      <point x="203.7" y="312.9"/>
      <point x="142.5" y="318"/>
      <point x="143.4" y="405.3" type="curve" smooth="yes"/>
      <point x="144.3" y="494.4"/>
      <point x="247.8" y="549.6"/>
      <point x="348.6" y="549.9" type="curve" smooth="yes"/>
      <point x="442.2" y="550.2"/>
      <point x="534.3" y="509.7"/>
      <point x="535.2" y="434.4" type="curve" smooth="yes"/>
      <point x="535.5" y="407.1"/>
      <point x="519.9" y="372.9"/>
      <point x="477.3" y="372.3" type="curve" smooth="yes"/>
      <point x="459.6" y="372"/>
      <point x="427.2" y="387.6"/>
      <point x="426.3" y="424.5" type="curve" smooth="yes"/>
      <point x="425.4" y="461.7"/>
      <point x="457.8" y="481.8"/>
      <point x="490.8" y="476.7" type="curve"/>
      <point x="453.9" y="510.6"/>
      <point x="397.8" y="522.6"/>
      <point x="347.4" y="522" type="curve" smooth="yes"/>
      <point x="276.6" y="521.1"/>
      <point x="171.6" y="484.8"/>
      <point x="171" y="405.3" type="curve" smooth="yes"/>
      <point x="170.4" y="336"/>
      <point x="210" y="340.2"/>
      <point x="332.4" y="294.6" type="curve" smooth="yes"/>
      <point x="415.2" y="263.7"/>
      <point x="487.2" y="252.6"/>
      <point x="486.3" y="179.4" type="curve"/>
      <point x="487.2" y="90"/>
      <point x="372.9" y="46.8"/>
      <point x="276.6" y="46.5" type="curve" smooth="yes"/>
      <point x="201.6" y="46.2"/>
      <point x="57.3" y="93"/>
      <point x="55.8" y="169.8" type="curve" smooth="yes"/>
      <point x="54.9" y="220.5"/>
      <point x="80.4" y="241.8"/>
      <point x="108" y="243" type="curve" smooth="yes"/>
      <point x="137.1" y="244.2"/>
      <point x="162.9" y="220.5"/>
      <point x="162.3" y="192" type="curve" smooth="yes"/>
      <point x="161.7" y="160.5"/>
      <point x="135.9" y="129"/>
      <point x="100.2" y="137.7" type="curve"/>
      <point x="135" y="103.2"/>
      <point x="214.8" y="75.3"/>
      <point x="277.5" y="74.4" type="curve" smooth="yes"/>
      <point x="344.7" y="73.5"/>
      <point x="458.7" y="101.1"/>
    </contour>
    <contour>
      <point x="351" y="590.1" type="line"/>
      <point x="379.5" y="590.1" type="line"/>
      <point x="251.4" y="-13.5" type="line"/>
      <point x="222.6" y="-13.5" type="line"/>
    </contour>
    <contour>
      <point x="412" y="583" type="move" name="top"/>
    </contour>
  </outline>
</glyph>
<glyph name="percent" format="1">
  <advance width="600"/>
  <unicode hex="0025"/>
  <outline>
    <contour>
      <point x="400" y="476"/>
      <point x="423" y="486" type="curve"/>
      <point x="69" y="-115" type="line"/>
      <point x="95" y="-130" type="line"/>
      <point x="518" y="586" type="line"/>
      <point x="492" y="601" type="line"/>
      <point x="452" y="536"/>
      <point x="414" y="499"/>
      <point x="364" y="503" type="curve" smooth="yes"/>
      <point x="350" y="504"/>
      <point x="335" y="507"/>
      <point x="319" y="515" type="curve"/>
      <point x="318" y="516" type="line"/>
      <point x="307" y="549"/>
      <point x="278" y="572"/>
      <point x="247" y="572" type="curve" smooth="yes"/>
      <point x="160" y="572"/>
      <point x="90" y="490"/>
      <point x="90" y="390" type="curve" smooth="yes"/>
      <point x="90" y="342"/>
      <point x="124" y="303"/>
      <point x="166" y="303" type="curve" smooth="yes"/>
      <point x="261" y="303"/>
      <point x="319" y="398"/>
      <point x="323" y="477" type="curve"/>
      <point x="326" y="479" type="line"/>
      <point x="339" y="475"/>
      <point x="350" y="471"/>
      <point x="363" y="471" type="curve" smooth="yes"/>
      <point x="384" y="471"/>
    </contour>
    <contour>
      <point x="292" y="486" type="curve" smooth="yes"/>
      <point x="292" y="402"/>
      <point x="235" y="334"/>
      <point x="166" y="334" type="curve" smooth="yes"/>
      <point x="142" y="334"/>
      <point x="121" y="359"/>
      <point x="121" y="390" type="curve" smooth="yes"/>
      <point x="121" y="474"/>
      <point x="178" y="541"/>
      <point x="247" y="541" type="curve" smooth="yes"/>
      <point x="272" y="541"/>
      <point x="292" y="517"/>
    </contour>
    <contour>
      <point x="461" y="257" type="curve" smooth="yes"/>
      <point x="375" y="257"/>
      <point x="304" y="173"/>
      <point x="304" y="73" type="curve" smooth="yes"/>
      <point x="304" y="26"/>
      <point x="338" y="-13"/>
      <point x="381" y="-13" type="curve" smooth="yes"/>
      <point x="467" y="-13"/>
      <point x="537" y="70"/>
      <point x="537" y="171" type="curve" smooth="yes"/>
      <point x="537" y="218"/>
      <point x="503" y="257"/>
    </contour>
    <contour>
      <point x="461" y="225" type="curve" smooth="yes"/>
      <point x="486" y="225"/>
      <point x="507" y="201"/>
      <point x="507" y="171" type="curve" smooth="yes"/>
      <point x="507" y="86"/>
      <point x="451" y="19"/>
      <point x="381" y="19" type="curve" smooth="yes"/>
      <point x="356" y="19"/>
      <point x="335" y="43"/>
      <point x="335" y="73" type="curve" smooth="yes"/>
      <point x="335" y="158"/>
      <point x="391" y="225"/>
    </contour>
  </outline>
</glyph>
<glyph name="parenleft" format="1">
  <advance width="600"/>
  <unicode hex="0028"/>
  <outline>
    <contour>
      <point x="356.4" y="-137.4" type="line"/>
      <point x="313.5" y="-35.4"/>
      <point x="303.6" y="99"/>
      <point x="331.5" y="219.9" type="curve" smooth="yes"/>
      <point x="358.5" y="336.6"/>
      <point x="421.8" y="466.5"/>
      <point x="518.7" y="571.5" type="curve"/>
      <point x="496.8" y="592.2" type="line"/>
      <point x="411.6" y="502.2"/>
      <point x="329.4" y="348.3"/>
      <point x="303.3" y="231.9" type="curve" smooth="yes"/>
      <point x="271.8" y="90.9"/>
      <point x="285.6" y="-48.9"/>
      <point x="329.4" y="-152.4" type="curve"/>
    </contour>
  </outline>
</glyph>
<glyph name="plus" format="1">
  <advance width="600"/>
  <unicode hex="002B"/>
  <note>
    plus
  </note>
  <outline>
    <contour>
      <point x="85" y="200" type="line"/>
      <point x="85" y="230" type="line"/>
      <point x="285" y="230" type="line"/>
      <point x="285" y="430" type="line"/>
      <point x="315" y="430" type="line"/>
      <point x="315" y="230" type="line"/>
      <point x="515" y="230" type="line"/>
      <point x="515" y="200" type="line"/>
      <point x="315" y="200" type="line"/>
      <point x="315" y="0" type="line"/>
      <point x="285" y="0" type="line"/>
      <point x="285" y="200" type="line"/>
    </contour>
  </outline>
</glyph>
<glyph name="comma" format="1">
  <advance width="600"/>
  <unicode hex="002C"/>
  <outline>
    <contour>
      <point x="287.1" y="-107.1"/>
      <point x="326.7" y="-35.1"/>
      <point x="326.7" y="27" type="curve" smooth="yes"/>
      <point x="326.7" y="93.3"/>
      <point x="292.8" y="115.5"/>
      <point x="261.3" y="115.5" type="curve" smooth="yes"/>
      <point x="226.2" y="115.5"/>
      <point x="197.1" y="84"/>
      <point x="197.7" y="54.3" type="curve" smooth="yes"/>
      <point x="198.3" y="18"/>
      <point x="226.2" y="-12"/>
      <point x="261.3" y="-12" type="curve" smooth="yes"/>
      <point x="271.2" y="-12"/>
      <point x="280.2" y="-9.9"/>
      <point x="287.7" y="-6" type="curve"/>
      <point x="273" y="-60.9"/>
      <point x="228" y="-102.9"/>
      <point x="165.3" y="-124.8" type="curve"/>
      <point x="179.1" y="-151.8" type="line"/>
    </contour>
  </outline>
</glyph>
<glyph name="hyphen" format="1">
  <advance width="600"/>
  <unicode hex="002D"/>
  <outline>
    <contour>
      <point x="518" y="230" type="line"/>
      <point x="518" y="200" type="line"/>
      <point x="88" y="200" type="line"/>
      <point x="88" y="230" type="line"/>
    </contour>
  </outline>
</glyph>
<glyph name="slash" format="1">
  <advance width="600"/>
  <unicode hex="002F"/>
  <outline>
    <contour>
      <point x="525" y="584" type="line"/>
      <point x="502" y="603" type="line"/>
      <point x="76" y="6" type="line"/>
      <point x="99" y="-13" type="line"/>
    </contour>
  </outline>
</glyph>
<glyph name="zero" format="1">
  <advance width="600"/>
  <unicode hex="0030"/>
  <outline>
    <contour>
      <point x="537.6" y="295.2" type="curve" smooth="yes"/>
      <point x="572" y="462"/>
      <point x="516" y="600"/>
      <point x="364.8" y="602.4" type="curve" smooth="yes"/>
      <point x="215" y="604"/>
      <point x="95" y="459"/>
      <point x="61.2" y="294" type="curve" smooth="yes"/>
      <point x="28" y="130"/>
      <point x="85" y="-12"/>
      <point x="234" y="-13.2" type="curve" smooth="yes"/>
      <point x="390" y="-14"/>
      <point x="503" y="134"/>
    </contour>
    <contour>
      <point x="92.4" y="295.2" type="curve" smooth="yes"/>
      <point x="122" y="429"/>
      <point x="224" y="571"/>
      <point x="358.8" y="572.4" type="curve" smooth="yes"/>
      <point x="496" y="574"/>
      <point x="543" y="448"/>
      <point x="507.6" y="296.4" type="curve" smooth="yes"/>
      <point x="473" y="147"/>
      <point x="364" y="17"/>
      <point x="240" y="16.8" type="curve" smooth="yes"/>
      <point x="196" y="17"/>
      <point x="161" y="30"/>
      <point x="134.4" y="55.2" type="curve" smooth="yes"/>
      <point x="82" y="106"/>
      <point x="70" y="194"/>
    </contour>
  </outline>
</glyph>
<glyph name="two" format="1">
  <advance width="600"/>
  <unicode hex="0032"/>
  <outline>
    <contour>
      <point x="13" y="0" type="curve"/>
      <point x="44.4" y="0" type="line"/>
      <point x="85" y="28"/>
      <point x="127" y="49"/>
      <point x="171.6" y="49.2" type="curve" smooth="yes"/>
      <point x="203" y="49"/>
      <point x="232.8" y="34.8"/>
      <point x="262.8" y="20.4" type="curve" smooth="yes"/>
      <point x="292.8" y="3.6"/>
      <point x="325" y="-13"/>
      <point x="367.2" y="-13.2" type="curve" smooth="yes"/>
      <point x="469" y="-13"/>
      <point x="505" y="54"/>
      <point x="531.6" y="169.2" type="curve"/>
      <point x="501" y="172" type="line"/>
      <point x="487" y="93"/>
      <point x="452" y="17"/>
      <point x="367.2" y="16.8" type="curve" smooth="yes"/>
      <point x="341" y="17"/>
      <point x="305" y="34"/>
      <point x="271.2" y="49.2" type="curve" smooth="yes"/>
      <point x="239" y="64"/>
      <point x="212" y="79"/>
      <point x="171.6" y="79.2" type="curve" smooth="yes"/>
      <point x="144" y="79"/>
      <point x="94" y="71"/>
      <point x="53" y="34" type="curve"/>
      <point x="85" y="179"/>
      <point x="193" y="211"/>
      <point x="270" y="241.2" type="curve" smooth="yes"/>
      <point x="457" y="317"/>
      <point x="526" y="341"/>
      <point x="550.8" y="452.4" type="curve" smooth="yes"/>
      <point x="574" y="565"/>
      <point x="472" y="602"/>
      <point x="375.6" y="602.4" type="curve" smooth="yes"/>
      <point x="269" y="603"/>
      <point x="136" y="537"/>
      <point x="120" y="440.4" type="curve" smooth="yes"/>
      <point x="112" y="393"/>
      <point x="137" y="362"/>
      <point x="168" y="362.4" type="curve" smooth="yes"/>
      <point x="201" y="363"/>
      <point x="234" y="382"/>
      <point x="234" y="421.2" type="curve" smooth="yes"/>
      <point x="234" y="445"/>
      <point x="204" y="489"/>
      <point x="157.2" y="465.6" type="curve"/>
      <point x="204" y="536"/>
      <point x="284" y="573"/>
      <point x="369.6" y="573.6" type="curve" smooth="yes"/>
      <point x="454" y="574"/>
      <point x="539" y="553"/>
      <point x="519" y="452" type="curve" smooth="yes"/>
      <point x="503" y="373"/>
      <point x="462" y="354"/>
      <point x="262.8" y="270" type="curve" smooth="yes"/>
      <point x="96" y="199"/>
      <point x="52" y="176"/>
    </contour>
  </outline>
</glyph>
<glyph name="three" format="1">
  <advance width="600"/>
  <unicode hex="0033"/>
  <outline>
    <contour>
      <point x="97.2" y="126" type="curve"/>
      <point x="100" y="114"/>
      <point x="116" y="104"/>
      <point x="134.4" y="104.4" type="curve" smooth="yes"/>
      <point x="167" y="105"/>
      <point x="198" y="126"/>
      <point x="198" y="159.6" type="curve" smooth="yes"/>
      <point x="198" y="191"/>
      <point x="171" y="218"/>
      <point x="136.8" y="218.4" type="curve" smooth="yes"/>
      <point x="112" y="218"/>
      <point x="88" y="198"/>
      <point x="74.4" y="152.4" type="curve" smooth="yes"/>
      <point x="43" y="50"/>
      <point x="143" y="-13"/>
      <point x="246" y="-13" type="curve" smooth="yes"/>
      <point x="287" y="-13"/>
      <point x="326" y="-5"/>
      <point x="363" y="12" type="curve" smooth="yes"/>
      <point x="437" y="46"/>
      <point x="495" y="109"/>
      <point x="512" y="190" type="curve" smooth="yes"/>
      <point x="536" y="305"/>
      <point x="466" y="367"/>
      <point x="367" y="380" type="curve"/>
      <point x="578.4" y="559.2" type="line"/>
      <point x="584" y="590" type="line"/>
      <point x="204" y="590.4" type="line"/>
      <point x="124.8" y="411.6" type="line"/>
      <point x="154.8" y="404.4" type="line"/>
      <point x="224.4" y="560.4" type="line"/>
      <point x="532.8" y="560.4" type="line"/>
      <point x="280.8" y="346.8" type="line"/>
      <point x="303" y="325" type="line"/>
      <point x="337" y="354" type="line"/>
      <point x="454" y="345"/>
      <point x="503" y="287"/>
      <point x="482" y="190" type="curve" smooth="yes"/>
      <point x="462" y="97"/>
      <point x="359" y="17"/>
      <point x="246" y="16.8" type="curve" smooth="yes"/>
      <point x="171" y="17"/>
      <point x="95" y="53"/>
    </contour>
  </outline>
</glyph>
<glyph name="four" format="1">
  <advance width="600"/>
  <unicode hex="0034"/>
  <outline>
    <contour>
      <point x="348" y="126" type="line"/>
      <point x="321" y="0" type="line"/>
      <point x="351.6" y="0" type="line"/>
      <point x="378" y="126" type="line"/>
      <point x="543" y="126" type="line"/>
      <point x="549" y="156" type="line"/>
      <point x="384" y="156" type="line"/>
      <point x="423.6" y="344.4" type="line"/>
      <point x="392.4" y="344.4" type="line"/>
      <point x="354" y="156" type="line"/>
      <point x="56" y="156" type="line"/>
      <point x="380.4" y="590.4" type="line"/>
      <point x="343.2" y="589.2" type="line"/>
      <point x="26" y="164" type="line"/>
      <point x="18" y="126" type="line"/>
    </contour>
  </outline>
</glyph>
<glyph name="five" format="1">
  <advance width="600"/>
  <unicode hex="0035"/>
  <outline>
    <contour>
      <point x="536.4" y="560.4" type="line"/>
      <point x="542.4" y="590.4" type="line"/>
      <point x="213.6" y="590.4" type="line"/>
      <point x="153.6" y="302.4" type="line"/>
      <point x="182.4" y="302.4" type="line"/>
      <point x="252" y="335"/>
      <point x="278" y="354"/>
      <point x="352.8" y="354" type="curve" smooth="yes"/>
      <point x="417" y="354"/>
      <point x="472" y="327"/>
      <point x="476.4" y="267.6" type="curve" smooth="yes"/>
      <point x="485" y="139"/>
      <point x="380" y="18"/>
      <point x="265.2" y="18" type="curve" smooth="yes"/>
      <point x="191" y="18"/>
      <point x="111" y="44"/>
      <point x="110.4" y="124.8" type="curve"/>
      <point x="122" y="102"/>
      <point x="141" y="104"/>
      <point x="154.8" y="104.4" type="curve" smooth="yes"/>
      <point x="171" y="105"/>
      <point x="212" y="122"/>
      <point x="211.2" y="164.4" type="curve"/>
      <point x="211" y="191"/>
      <point x="184" y="218"/>
      <point x="147.6" y="218.4" type="curve" smooth="yes"/>
      <point x="122" y="218"/>
      <point x="100" y="202"/>
      <point x="86.4" y="156" type="curve" smooth="yes"/>
      <point x="59" y="56"/>
      <point x="153" y="-13"/>
      <point x="261.6" y="-13.2" type="curve" smooth="yes"/>
      <point x="394.8" y="-13.2"/>
      <point x="513.6" y="111.6"/>
      <point x="506.4" y="265.2" type="curve" smooth="yes"/>
      <point x="503" y="344"/>
      <point x="435" y="384"/>
      <point x="351.6" y="384" type="curve" smooth="yes"/>
      <point x="299" y="384"/>
      <point x="241" y="366"/>
      <point x="192" y="339.6" type="curve"/>
      <point x="240" y="560.4" type="line"/>
    </contour>
  </outline>
</glyph>
<glyph name="six" format="1">
  <advance width="600"/>
  <unicode hex="0036"/>
  <outline>
    <contour>
      <point x="106.8" y="283.2" type="curve"/>
      <point x="110.4" y="252" type="line"/>
      <point x="277" y="394"/>
      <point x="537" y="388"/>
      <point x="491" y="180" type="curve" smooth="yes"/>
      <point x="484" y="148"/>
      <point x="470" y="120"/>
      <point x="447" y="95" type="curve" smooth="yes"/>
      <point x="402" y="47"/>
      <point x="336" y="15"/>
      <point x="267.6" y="14.4" type="curve" smooth="yes"/>
      <point x="-18" y="15"/>
      <point x="126" y="576"/>
      <point x="414" y="573.6" type="curve" smooth="yes"/>
      <point x="483" y="573"/>
      <point x="530" y="548"/>
      <point x="536.4" y="500.4" type="curve"/>
      <point x="533" y="504"/>
      <point x="519" y="519"/>
      <point x="489.6" y="517.2" type="curve" smooth="yes"/>
      <point x="463" y="516"/>
      <point x="439" y="486"/>
      <point x="438" y="459.6" type="curve" smooth="yes"/>
      <point x="438" y="431"/>
      <point x="462" y="401"/>
      <point x="490.8" y="402" type="curve" smooth="yes"/>
      <point x="535" y="403"/>
      <point x="553" y="431"/>
      <point x="561.6" y="466.8" type="curve" smooth="yes"/>
      <point x="579" y="547"/>
      <point x="523" y="604"/>
      <point x="420" y="603.6" type="curve" smooth="yes"/>
      <point x="249" y="603"/>
      <point x="131" y="459"/>
      <point x="92.4" y="279.6" type="curve" smooth="yes"/>
      <point x="59" y="131"/>
      <point x="113" y="-13"/>
      <point x="261.6" y="-13.2" type="curve" smooth="yes"/>
      <point x="302" y="-13"/>
      <point x="340" y="-5"/>
      <point x="376.8" y="10.8" type="curve" smooth="yes"/>
      <point x="450" y="43"/>
      <point x="504" y="104"/>
      <point x="520.8" y="180" type="curve" smooth="yes"/>
      <point x="573" y="410"/>
      <point x="296" y="439"/>
    </contour>
  </outline>
</glyph>
<glyph name="colon" format="1">
  <advance width="600"/>
  <unicode hex="003A"/>
  <outline>
    <contour>
      <point x="267" y="-12" type="curve" smooth="yes"/>
      <point x="302.1" y="-12"/>
      <point x="330" y="18"/>
      <point x="330" y="51" type="curve" smooth="yes"/>
      <point x="330" y="84"/>
      <point x="302.1" y="114"/>
      <point x="267" y="114" type="curve" smooth="yes"/>
      <point x="231.9" y="114"/>
      <point x="203.1" y="84"/>
      <point x="203.1" y="51" type="curve" smooth="yes"/>
      <point x="203.1" y="18"/>
      <point x="231.9" y="-12"/>
    </contour>
    <contour>
      <point x="318.9" y="251.1" type="curve" smooth="yes"/>
      <point x="354" y="251.1"/>
      <point x="381.9" y="281.1"/>
      <point x="381.9" y="314.1" type="curve" smooth="yes"/>
      <point x="381.9" y="347.1"/>
      <point x="354" y="377.1"/>
      <point x="318.9" y="377.1" type="curve" smooth="yes"/>
      <point x="284.1" y="377.1"/>
      <point x="255" y="347.1"/>
      <point x="255" y="314.1" type="curve" smooth="yes"/>
      <point x="255" y="281.1"/>
      <point x="284.1" y="251.1"/>
    </contour>
  </outline>
</glyph>
<glyph name="greater" format="1">
  <advance width="600"/>
  <unicode hex="003E"/>
  <note>
    greater
  </note>
  <outline>
    <contour>
      <point x="534" y="245" type="line"/>
      <point x="534" y="208" type="line"/>
      <point x="126" y="-13" type="line"/>
      <point x="112" y="14" type="line"/>
      <point x="505" y="227" type="line"/>
      <point x="112" y="439" type="line"/>
      <point x="126" y="466" type="line"/>
    </contour>
  </outline>
</glyph>
<glyph name="at" format="1">
  <advance width="599"/>
  <unicode hex="0040"/>
  <outline>
    <contour>
      <point x="475" y="-33" type="line"/>
      <point x="451" y="-55" type="line"/>
      <point x="407" y="-100"/>
      <point x="343" y="-132"/>
      <point x="271" y="-132" type="curve" smooth="yes"/>
      <point x="128" y="-132"/>
      <point x="51" y="-6"/>
      <point x="51" y="142" type="curve" smooth="yes"/>
      <point x="51" y="356"/>
      <point x="212" y="538"/>
      <point x="394" y="538" type="curve" smooth="yes"/>
      <point x="503" y="538"/>
      <point x="571" y="471"/>
      <point x="571" y="347" type="curve" smooth="yes"/>
      <point x="571" y="194"/>
      <point x="469" y="67"/>
      <point x="425" y="67" type="curve" smooth="yes"/>
      <point x="406" y="67"/>
      <point x="397" y="88"/>
      <point x="397" y="124" type="curve" smooth="yes"/>
      <point x="397" y="177"/>
      <point x="417" y="241"/>
      <point x="469" y="354" type="curve"/>
      <point x="469" y="354" type="line"/>
      <point x="439" y="373" type="line"/>
      <point x="431" y="360" type="line"/>
      <point x="410" y="388"/>
      <point x="377" y="403"/>
      <point x="341" y="403" type="curve"/>
      <point x="231" y="403"/>
      <point x="139" y="257"/>
      <point x="139" y="155" type="curve" smooth="yes"/>
      <point x="139" y="96"/>
      <point x="169" y="34"/>
      <point x="239" y="34" type="curve" smooth="yes"/>
      <point x="291" y="34"/>
      <point x="330" y="68"/>
      <point x="364" y="117" type="curve"/>
      <point x="368" y="65"/>
      <point x="390" y="34"/>
      <point x="422" y="34" type="curve" smooth="yes"/>
      <point x="496" y="34"/>
      <point x="603" y="196"/>
      <point x="603" y="352" type="curve" smooth="yes"/>
      <point x="603" y="488"/>
      <point x="521" y="569"/>
      <point x="394" y="569" type="curve" smooth="yes"/>
      <point x="194" y="569"/>
      <point x="16" y="372"/>
      <point x="16" y="143" type="curve" smooth="yes"/>
      <point x="16" y="-25"/>
      <point x="111" y="-161"/>
      <point x="279" y="-161" type="curve" smooth="yes"/>
      <point x="370" y="-161"/>
      <point x="440" y="-121"/>
      <point x="493" y="-57" type="curve"/>
    </contour>
    <contour>
      <point x="174" y="111"/>
      <point x="174" y="151" type="curve" smooth="yes"/>
      <point x="174" y="236"/>
      <point x="249" y="368"/>
      <point x="349" y="368" type="curve" smooth="yes"/>
      <point x="389" y="368"/>
      <point x="407" y="352"/>
      <point x="417" y="325" type="curve"/>
      <point x="412" y="313"/>
      <point x="407" y="298"/>
      <point x="403" y="285" type="curve" smooth="yes"/>
      <point x="370" y="179"/>
      <point x="325" y="68"/>
      <point x="239" y="68" type="curve" smooth="yes"/>
      <point x="189" y="68"/>
    </contour>
  </outline>
</glyph>
<glyph name="A" format="1">
  <advance width="600"/>
  <unicode hex="0041"/>
  <outline>
    <contour>
      <point x="22.2" y="30" type="line"/>
      <point x="15" y="0" type="line"/>
      <point x="165" y="0" type="line"/>
      <point x="171" y="30" type="line"/>
      <point x="117.3" y="30" type="line"/>
      <point x="438" y="555.6" type="line"/>
      <point x="438" y="30" type="line"/>
      <point x="376.8" y="30" type="line"/>
      <point x="370.8" y="0" type="line"/>
      <point x="530.4" y="0" type="line"/>
      <point x="536.4" y="30" type="line"/>
      <point x="468" y="30" type="line"/>
      <point x="468" y="590.4" type="line"/>
      <point x="423.6" y="590.4" type="line"/>
      <point x="83.4" y="30" type="line"/>
    </contour>
    <contour>
      <point x="238.8" y="270" type="line"/>
      <point x="238.8" y="240" type="line"/>
      <point x="447.6" y="240" type="line"/>
      <point x="447.6" y="270" type="line"/>
    </contour>
    <component base="Swash" xOffset="24"/>
    <contour>
      <point x="454.8" y="603.6" type="move" name="top"/>
    </contour>
  </outline>
</glyph>
<glyph name="F" format="1">
  <advance width="600"/>
  <unicode hex="0046"/>
  <outline>
    <contour>
      <point x="602.4" y="590.4" type="line"/>
      <point x="194.4" y="590.4" type="line" smooth="yes"/>
      <point x="112" y="590"/>
      <point x="81.6" y="496.8"/>
      <point x="84" y="468" type="curve"/>
      <point x="114" y="468" type="line"/>
      <point x="111.6" y="483.6"/>
      <point x="132" y="560.4"/>
      <point x="194.4" y="560.4" type="curve" smooth="yes"/>
      <point x="259.2" y="560.4" type="line"/>
      <point x="152.4" y="30" type="line"/>
      <point x="7.2" y="30" type="line"/>
      <point x="0" y="0" type="line"/>
      <point x="318" y="0" type="line"/>
      <point x="331.2" y="30" type="line"/>
      <point x="182.4" y="30" type="line"/>
      <point x="232.8" y="279.6" type="line"/>
      <point x="393.6" y="279.6" type="line"/>
      <point x="373.2" y="189.6" type="line"/>
      <point x="404.4" y="189.6" type="line"/>
      <point x="447.6" y="380.4" type="line"/>
      <point x="416.4" y="380.4" type="line"/>
      <point x="400.8" y="309.6" type="line"/>
      <point x="238.8" y="309.6" type="line"/>
      <point x="289.2" y="560.4" type="line"/>
      <point x="565.2" y="560.4" type="line"/>
      <point x="528" y="380.4" type="line"/>
      <point x="559.2" y="380.4" type="line"/>
    </contour>
  </outline>
</glyph>
<glyph name="H" format="1">
  <advance width="600"/>
  <unicode hex="0048"/>
  <outline>
    <contour>
      <point x="447.6" y="30" type="line"/>
      <point x="554.4" y="560.4" type="line"/>
      <point x="643.2" y="560.4" type="line"/>
      <point x="649.2" y="590.4" type="line"/>
      <point x="439.2" y="590.4" type="line"/>
      <point x="433.2" y="560.4" type="line"/>
      <point x="524.4" y="560.4" type="line"/>
      <point x="417.6" y="30" type="line"/>
      <point x="326.4" y="30" type="line"/>
      <point x="320.4" y="0" type="line"/>
      <point x="532.8" y="0" type="line"/>
      <point x="538.8" y="30" type="line"/>
    </contour>
    <contour>
      <point x="166.8" y="309.6" type="line"/>
      <point x="160.8" y="279.6" type="line"/>
      <point x="474" y="279.6" type="line"/>
      <point x="480" y="309.6" type="line"/>
    </contour>
    <contour>
      <point x="111.6" y="30" type="line"/>
      <point x="218.4" y="560.4" type="line"/>
      <point x="307.2" y="560.4" type="line"/>
      <point x="313.2" y="590.4" type="line"/>
      <point x="103.2" y="590.4" type="line"/>
      <point x="97.2" y="560.4" type="line"/>
      <point x="188.4" y="560.4" type="line"/>
      <point x="81.6" y="30" type="line"/>
      <point x="-9.6" y="30" type="line"/>
      <point x="-15.6" y="0" type="line"/>
      <point x="196.8" y="0" type="line"/>
      <point x="202.8" y="30" type="line"/>
    </contour>
  </outline>
</glyph>
<glyph name="I" format="1">
  <advance width="600"/>
  <unicode hex="0049"/>
  <outline>
    <contour>
      <point x="282" y="30" type="line"/>
      <point x="388.8" y="560.4" type="line"/>
      <point x="570" y="560.4" type="line"/>
      <point x="576" y="590.4" type="line"/>
      <point x="154.8" y="590.4" type="line"/>
      <point x="148.8" y="560.4" type="line"/>
      <point x="358.8" y="560.4" type="line"/>
      <point x="252" y="30" type="line"/>
      <point x="70.8" y="30" type="line"/>
      <point x="64.8" y="0" type="line"/>
      <point x="458.4" y="0" type="line"/>
      <point x="464.4" y="30" type="line"/>
    </contour>
    <contour>
      <point x="380.4" y="602.4" type="move" name="top"/>
    </contour>
  </outline>
</glyph>
<glyph name="J" format="1">
  <advance width="600"/>
  <unicode hex="004A"/>
  <outline>
    <contour>
      <point x="66" y="135.6" type="curve" smooth="yes"/>
      <point x="66.9" y="75.9"/>
      <point x="117.9" y="17.1"/>
      <point x="207.6" y="16.8" type="curve" smooth="yes"/>
      <point x="320.1" y="16.5"/>
      <point x="384.3" y="90"/>
      <point x="430.8" y="304.8" type="curve" smooth="yes"/>
      <point x="486" y="560.4" type="line"/>
      <point x="282" y="560.4" type="line"/>
      <point x="289.2" y="589.2" type="line"/>
      <point x="665.1" y="589.2" type="line"/>
      <point x="657.9" y="560.4" type="line"/>
      <point x="516" y="560.4" type="line"/>
      <point x="462" y="304.8" type="line" smooth="yes"/>
      <point x="411.6" y="66.6"/>
      <point x="333.9" y="-12.3"/>
      <point x="207.6" y="-13.2" type="curve" smooth="yes"/>
      <point x="99" y="-14.1"/>
      <point x="33" y="62.1"/>
      <point x="36" y="134.4" type="curve" smooth="yes"/>
      <point x="39.6" y="221.1"/>
      <point x="96.9" y="263.1"/>
      <point x="152.4" y="261.6" type="curve" smooth="yes"/>
      <point x="183" y="260.7"/>
      <point x="204" y="240.9"/>
      <point x="205.2" y="217.2" type="curve" smooth="yes"/>
      <point x="206.4" y="192.9"/>
      <point x="189" y="170.1"/>
      <point x="156" y="170.4" type="curve" smooth="yes"/>
      <point x="131.1" y="170.7"/>
      <point x="111" y="201.9"/>
      <point x="122.4" y="226.8" type="curve"/>
      <point x="111.9" y="225"/>
      <point x="65.1" y="194.4"/>
    </contour>
  </outline>
</glyph>
<glyph name="K" format="1">
  <advance width="600"/>
  <unicode hex="004B"/>
  <outline>
    <contour>
      <point x="92.4" y="30" type="line"/>
      <point x="205.2" y="560.4" type="line"/>
      <point x="295.2" y="560.4" type="line"/>
      <point x="302.4" y="590.4" type="line"/>
      <point x="91.2" y="590.4" type="line"/>
      <point x="85.2" y="559.2" type="line"/>
      <point x="175.2" y="560.4" type="line"/>
      <point x="62.4" y="30" type="line"/>
      <point x="-30" y="30" type="line"/>
      <point x="-36" y="0" type="line"/>
      <point x="174" y="0" type="line"/>
      <point x="180" y="30" type="line"/>
    </contour>
    <contour>
      <point x="104.4" y="212.4" type="line"/>
      <point x="94.8" y="164.4" type="line"/>
      <point x="566.4" y="560.4" type="line"/>
      <point x="657.6" y="560.4" type="line"/>
      <point x="664.8" y="590.4" type="line"/>
      <point x="445.2" y="590.4" type="line"/>
      <point x="438" y="560.4" type="line"/>
      <point x="519.6" y="560.4" type="line"/>
    </contour>
    <contour>
      <point x="270.9" y="339.3" type="curve"/>
      <point x="246" y="320.4" type="line"/>
      <point x="361.2" y="47.7"/>
      <point x="361.2" y="-14.1"/>
      <point x="447.6" y="-13.2" type="curve" smooth="yes"/>
      <point x="479.1" y="-12.9"/>
      <point x="533.1" y="8.7"/>
      <point x="558.3" y="103.8" type="curve"/>
      <point x="529.2" y="111.6" type="line"/>
      <point x="507" y="50.1"/>
      <point x="492" y="16.5"/>
      <point x="446.4" y="16.8" type="curve" smooth="yes"/>
      <point x="382.5" y="17.1"/>
      <point x="388.2" y="63.6"/>
    </contour>
  </outline>
</glyph>
<glyph name="N" format="1">
  <advance width="600"/>
  <unicode hex="004E"/>
  <outline>
    <contour>
      <point x="432" y="0" type="line"/>
      <point x="280.8" y="590.4" type="line"/>
      <point x="201" y="590.4" type="line"/>
      <point x="195" y="560.4" type="line"/>
      <point x="225.6" y="560.4" type="line"/>
      <point x="112.8" y="30" type="line"/>
      <point x="55.2" y="30" type="line"/>
      <point x="49.2" y="0" type="line"/>
      <point x="212.4" y="0" type="line"/>
      <point x="218.4" y="30" type="line"/>
      <point x="142.8" y="30" type="line"/>
      <point x="255.6" y="560.4" type="line"/>
      <point x="402" y="0" type="line"/>
    </contour>
    <contour>
      <point x="566.4" y="560.4" type="line"/>
      <point x="645.6" y="560.4" type="line"/>
      <point x="651.6" y="590.4" type="line"/>
      <point x="460.8" y="590.4" type="line"/>
      <point x="454.8" y="560.4" type="line"/>
      <point x="536.4" y="560.4" type="line"/>
      <point x="417.6" y="0" type="line"/>
      <point x="448.8" y="0" type="line"/>
    </contour>
    <contour>
      <point x="93" y="468" type="curve"/>
      <point x="123" y="468" type="line"/>
      <point x="120.6" y="483.6"/>
      <point x="141" y="560.4"/>
      <point x="203.4" y="560.4" type="curve" smooth="yes"/>
      <point x="263.4" y="560.4" type="line"/>
      <point x="263.4" y="590.4" type="line"/>
      <point x="203.4" y="590.4" type="line" smooth="yes"/>
      <point x="120.6" y="590.4"/>
      <point x="90.6" y="496.8"/>
    </contour>
    <contour>
      <point x="378" y="602.4" type="move" name="top"/>
    </contour>
  </outline>
</glyph>
<glyph name="Q" format="1">
  <advance width="600"/>
  <unicode hex="0051"/>
  <outline>
    <contour>
      <point x="153.6" y="34.8" type="line"/>
      <point x="172" y="118"/>
      <point x="222" y="185"/>
      <point x="273.6" y="186" type="curve" smooth="yes"/>
      <point x="321" y="187"/>
      <point x="320" y="110"/>
      <point x="303.6" y="34.8" type="curve" smooth="yes"/>
      <point x="279" y="-78"/>
      <point x="316" y="-150"/>
      <point x="384" y="-150" type="curve" smooth="yes"/>
      <point x="446.1" y="-150"/>
      <point x="499.8" y="-88.5"/>
      <point x="530.1" y="12.6" type="curve"/>
      <point x="502.8" y="21.6" type="line"/>
      <point x="475" y="-67"/>
      <point x="430" y="-120"/>
      <point x="384" y="-120" type="curve" smooth="yes"/>
      <point x="337" y="-120"/>
      <point x="306" y="-60"/>
      <point x="333.6" y="34.8" type="curve" smooth="yes"/>
      <point x="363" y="135"/>
      <point x="341" y="215"/>
      <point x="274.8" y="216" type="curve" smooth="yes"/>
      <point x="204" y="217"/>
      <point x="146" y="138"/>
      <point x="123.6" y="34.8" type="curve"/>
    </contour>
    <component base="zero"/>
  </outline>
</glyph>
<glyph name="S" format="1">
  <advance width="600"/>
  <unicode hex="0053"/>
  <outline>
    <contour>
      <point x="460.8" y="150" type="curve"/>
      <point x="462" y="216"/>
      <point x="385.2" y="249"/>
      <point x="283.5" y="286.8" type="curve" smooth="yes"/>
      <point x="185.1" y="323.1"/>
      <point x="119.1" y="348.6"/>
      <point x="120" y="442.8" type="curve" smooth="yes"/>
      <point x="120.9" y="542.4"/>
      <point x="233" y="602"/>
      <point x="342" y="602.4" type="curve" smooth="yes"/>
      <point x="443" y="603"/>
      <point x="543" y="559"/>
      <point x="543.6" y="477.6" type="curve" smooth="yes"/>
      <point x="544" y="448"/>
      <point x="527" y="411"/>
      <point x="481.2" y="410.4" type="curve" smooth="yes"/>
      <point x="462" y="410"/>
      <point x="427" y="427"/>
      <point x="426" y="466.8" type="curve" smooth="yes"/>
      <point x="425" y="507"/>
      <point x="460" y="529"/>
      <point x="495.6" y="523.2" type="curve"/>
      <point x="456" y="560"/>
      <point x="395" y="573"/>
      <point x="340.8" y="572.4" type="curve" smooth="yes"/>
      <point x="264" y="571.5"/>
      <point x="150.6" y="532.2"/>
      <point x="150" y="442.8" type="curve" smooth="yes"/>
      <point x="149.4" y="367.8"/>
      <point x="192" y="353.1"/>
      <point x="324.3" y="303.6" type="curve" smooth="yes"/>
      <point x="414" y="270"/>
      <point x="492" y="229"/>
      <point x="490.8" y="150" type="curve"/>
      <point x="492" y="34"/>
      <point x="368" y="-13"/>
      <point x="264" y="-13.2" type="curve" smooth="yes"/>
      <point x="183" y="-13"/>
      <point x="27" y="37"/>
      <point x="25.2" y="120" type="curve" smooth="yes"/>
      <point x="24" y="175"/>
      <point x="52" y="198"/>
      <point x="81.6" y="199.2" type="curve" smooth="yes"/>
      <point x="113" y="200"/>
      <point x="141" y="175"/>
      <point x="140.4" y="144" type="curve" smooth="yes"/>
      <point x="140" y="110"/>
      <point x="112" y="76"/>
      <point x="73.2" y="85.2" type="curve"/>
      <point x="111" y="48"/>
      <point x="197.1" y="17.7"/>
      <point x="265.2" y="16.8" type="curve" smooth="yes"/>
      <point x="337.8" y="15.9"/>
      <point x="461" y="46"/>
    </contour>
  </outline>
</glyph>
<glyph name="T" format="1">
  <advance width="600"/>
  <unicode hex="0054"/>
  <outline>
    <contour>
      <point x="387.6" y="0" type="line"/>
      <point x="116.4" y="0" type="line"/>
      <point x="122.4" y="30" type="line"/>
      <point x="242.4" y="30" type="line"/>
      <point x="356.4" y="560.4" type="line"/>
      <point x="157.2" y="560.4" type="line"/>
      <point x="115.2" y="360" type="line"/>
      <point x="85.2" y="360" type="line"/>
      <point x="133.2" y="590.4" type="line"/>
      <point x="622.8" y="590.4" type="line"/>
      <point x="573.6" y="360" type="line"/>
      <point x="543.6" y="360" type="line"/>
      <point x="586.8" y="560.4" type="line"/>
      <point x="387.6" y="560.4" type="line"/>
      <point x="273.6" y="30" type="line"/>
      <point x="393.6" y="30" type="line"/>
    </contour>
    <contour>
      <point x="374.4" y="602.4" type="move" name="top"/>
    </contour>
  </outline>
</glyph>
<glyph name="W" format="1">
  <advance width="600"/>
  <unicode hex="0057"/>
  <outline>
    <contour>
      <point x="123.6" y="560.4" type="line"/>
      <point x="123.6" y="0" type="line"/>
      <point x="171.6" y="0" type="line"/>
      <point x="348" y="420" type="line"/>
      <point x="348" y="0" type="line"/>
      <point x="394.8" y="0" type="line"/>
      <point x="621.6" y="560.4" type="line"/>
      <point x="660.6" y="560.4" type="line"/>
      <point x="667.2" y="590.4" type="line"/>
      <point x="548.4" y="590.4" type="line"/>
      <point x="541.8" y="560.4" type="line"/>
      <point x="589.2" y="560.4" type="line"/>
      <point x="378" y="37.2" type="line"/>
      <point x="378" y="450" type="line"/>
      <point x="330" y="450" type="line"/>
      <point x="153.6" y="36" type="line"/>
      <point x="153.6" y="560.4" type="line"/>
      <point x="198.6" y="560.4" type="line"/>
      <point x="205.2" y="590.4" type="line"/>
      <point x="84" y="590.4" type="line"/>
      <point x="77.4" y="560.4" type="line"/>
    </contour>
  </outline>
</glyph>
<glyph name="X" format="1">
  <advance width="600"/>
  <unicode hex="0058"/>
  <outline>
    <contour>
      <point x="36.9" y="30" type="line"/>
      <point x="30.3" y="0" type="line"/>
      <point x="210.3" y="0" type="line"/>
      <point x="216.9" y="30" type="line"/>
      <point x="153.6" y="30" type="line"/>
      <point x="314.4" y="262.8" type="line"/>
      <point x="393.6" y="30" type="line"/>
      <point x="340.5" y="30" type="line"/>
      <point x="333.9" y="0" type="line"/>
      <point x="510.3" y="0" type="line"/>
      <point x="516.9" y="30" type="line"/>
      <point x="426" y="30" type="line"/>
      <point x="334.8" y="292.8" type="line"/>
      <point x="519.6" y="560.4" type="line"/>
      <point x="599.1" y="560.4" type="line"/>
      <point x="605.7" y="590.4" type="line"/>
      <point x="431.7" y="590.4" type="line"/>
      <point x="425.1" y="560.4" type="line"/>
      <point x="482.4" y="560.4" type="line"/>
      <point x="322.8" y="327.6" type="line"/>
      <point x="243.6" y="560.4" type="line"/>
      <point x="295.5" y="560.4" type="line"/>
      <point x="302.1" y="590.4" type="line"/>
      <point x="131.7" y="590.4" type="line"/>
      <point x="125.1" y="560.4" type="line"/>
      <point x="212.4" y="560.4" type="line"/>
      <point x="302.4" y="297.6" type="line"/>
      <point x="117.6" y="30" type="line"/>
    </contour>
  </outline>
</glyph>
<glyph name="Y" format="1">
  <advance width="600"/>
  <unicode hex="0059"/>
  <outline>
    <contour>
      <point x="120" y="30" type="line"/>
      <point x="114" y="0" type="line"/>
      <point x="384" y="0" type="line"/>
      <point x="391.2" y="30" type="line"/>
      <point x="270" y="30" type="line"/>
      <point x="316.8" y="237.6" type="line"/>
      <point x="554.4" y="559.2" type="line"/>
      <point x="627.6" y="559.2" type="line"/>
      <point x="634.8" y="590.4" type="line"/>
      <point x="434.4" y="590.4" type="line"/>
      <point x="427.2" y="559.2" type="line"/>
      <point x="518.4" y="559.2" type="line"/>
      <point x="307.2" y="272.4" type="line"/>
      <point x="220.8" y="559.2" type="line"/>
      <point x="308.4" y="560.4" type="line"/>
      <point x="315.6" y="590.4" type="line"/>
      <point x="114" y="590.4" type="line"/>
      <point x="105.6" y="559.2" type="line"/>
      <point x="190.8" y="559.2" type="line"/>
      <point x="286.8" y="237.6" type="line"/>
      <point x="240" y="30" type="line"/>
    </contour>
    <contour>
      <point x="369.6" y="603.6" type="move" name="top"/>
    </contour>
  </outline>
</glyph>
<glyph name="Z" format="1">
  <advance width="600"/>
  <unicode hex="005A"/>
  <outline>
    <contour>
      <point x="590.4" y="0"/>
      <point x="564" y="156"/>
      <point x="507.3" y="221.4" type="curve"/>
      <point x="484.2" y="201.6" type="line"/>
      <point x="521.1" y="155.1"/>
      <point x="570" y="30"/>
      <point x="397.2" y="30" type="curve" smooth="yes"/>
      <point x="96" y="30" type="line"/>
      <point x="562.8" y="559.2" type="line"/>
      <point x="562.8" y="589.2" type="line"/>
      <point x="138" y="589.2" type="line"/>
      <point x="79.2" y="312" type="line"/>
      <point x="109.2" y="312" type="line"/>
      <point x="163.2" y="559.2" type="line"/>
      <point x="524.4" y="559.2" type="line"/>
      <point x="54" y="31.2" type="line"/>
      <point x="54" y="0" type="line"/>
      <point x="397.2" y="0" type="line" smooth="yes"/>
    </contour>
    <contour>
      <point x="382" y="590" type="move" name="top"/>
    </contour>
  </outline>
</glyph>
<glyph name="backslash" format="1">
  <advance width="600"/>
  <unicode hex="005C"/>
  <outline>
    <contour>
      <point x="543" y="6" type="line"/>
      <point x="519.9" y="-12.9" type="line"/>
      <point x="93.9" y="584.1" type="line"/>
      <point x="117" y="603" type="line"/>
    </contour>
  </outline>
</glyph>
<glyph name="underscore" format="1">
  <advance width="600"/>
  <unicode hex="005F"/>
  <outline>
    <contour>
      <point x="485.1" y="-62.7" type="line"/>
      <point x="125.1" y="-62.7" type="line"/>
      <point x="125" y="-33" type="line"/>
      <point x="485" y="-33" type="line"/>
    </contour>
  </outline>
</glyph>
<glyph name="d" format="1">
  <advance width="600"/>
  <unicode hex="0064"/>
  <outline>
    <contour>
      <point x="447.6" y="369.6" type="curve"/>
      <point x="420" y="241.2" type="line"/>
      <point x="304" y="83"/>
      <point x="235" y="18"/>
      <point x="184.8" y="18" type="curve" smooth="yes"/>
      <point x="140" y="18"/>
      <point x="88" y="55"/>
      <point x="87.6" y="135.6" type="curve"/>
      <point x="87" y="231"/>
      <point x="198" y="418"/>
      <point x="313.2" y="415.2" type="curve" smooth="yes"/>
      <point x="356" y="414"/>
      <point x="420" y="392"/>
    </contour>
    <contour>
      <point x="531.6" y="81.6" type="line"/>
      <point x="489.9" y="41.1"/>
      <point x="450.9" y="18"/>
      <point x="423.6" y="18" type="curve" smooth="yes"/>
      <point x="405" y="18"/>
      <point x="405" y="31.8"/>
      <point x="416.4" y="82.8" type="curve" smooth="yes"/>
      <point x="507.9" y="495.3" type="line"/>
      <point x="524.7" y="574.8"/>
      <point x="509.1" y="603.9"/>
      <point x="465" y="602.7" type="curve" smooth="yes"/>
      <point x="444" y="601.8"/>
      <point x="402" y="586.8"/>
      <point x="352.2" y="558.3" type="curve"/>
      <point x="366.6" y="531.9" type="line"/>
      <point x="407.1" y="555"/>
      <point x="447" y="571.8"/>
      <point x="463.8" y="572.7" type="curve" smooth="yes"/>
      <point x="485.1" y="573.9"/>
      <point x="492.9" y="555.9"/>
      <point x="477" y="494.7" type="curve" smooth="yes"/>
      <point x="456" y="404.4" type="line"/>
      <point x="416.1" y="420.9"/>
      <point x="363.9" y="441.9"/>
      <point x="319.2" y="442.8" type="curve" smooth="yes"/>
      <point x="162.9" y="446.1"/>
      <point x="54.9" y="237"/>
      <point x="55.2" y="134.4" type="curve" smooth="yes"/>
      <point x="54.9" y="59.1"/>
      <point x="90.9" y="-12.9"/>
      <point x="182.4" y="-13.2" type="curve" smooth="yes"/>
      <point x="264" y="-12.9"/>
      <point x="326.1" y="69"/>
      <point x="404.4" y="171.6" type="curve"/>
      <point x="380.4" y="58.8" type="line" smooth="yes"/>
      <point x="374.1" y="30.9"/>
      <point x="372.9" y="-12.9"/>
      <point x="423.6" y="-13.2" type="curve" smooth="yes"/>
      <point x="461.1" y="-12.9"/>
      <point x="501.9" y="15"/>
      <point x="546" y="56.4" type="curve"/>
    </contour>
  </outline>
</glyph>
<glyph name="e" format="1">
  <advance width="600"/>
  <unicode hex="0065"/>
  <outline>
    <contour>
      <point x="118.8" y="243.6" type="curve"/>
      <point x="99.6" y="217.2" type="line"/>
      <point x="263" y="164"/>
      <point x="490" y="211"/>
      <point x="492" y="342" type="curve" smooth="yes"/>
      <point x="493" y="409"/>
      <point x="431" y="443"/>
      <point x="352.8" y="442.8" type="curve" smooth="yes"/>
      <point x="221" y="442"/>
      <point x="81" y="324"/>
      <point x="80.4" y="158.4" type="curve" smooth="yes"/>
      <point x="80" y="52"/>
      <point x="165" y="-13"/>
      <point x="264" y="-13.2" type="curve" smooth="yes"/>
      <point x="349" y="-13"/>
      <point x="433" y="45"/>
      <point x="489.6" y="100.8" type="curve"/>
      <point x="466.8" y="122.4" type="line"/>
      <point x="401" y="59"/>
      <point x="344" y="17"/>
      <point x="262.8" y="16.8" type="curve" smooth="yes"/>
      <point x="178" y="17"/>
      <point x="110" y="71"/>
      <point x="110.4" y="157.2" type="curve" smooth="yes"/>
      <point x="111" y="312"/>
      <point x="239" y="412"/>
      <point x="354" y="412.8" type="curve" smooth="yes"/>
      <point x="411" y="413"/>
      <point x="462" y="391"/>
      <point x="462" y="342" type="curve" smooth="yes"/>
      <point x="462" y="244"/>
      <point x="256" y="196"/>
    </contour>
    <contour>
      <point x="375.6" y="442.8" type="move" name="top"/>
    </contour>
  </outline>
</glyph>
<glyph name="h" format="1">
  <advance width="600"/>
  <unicode hex="0068"/>
  <outline>
    <contour>
      <point x="550.8" y="54" type="curve"/>
      <point x="530.4" y="75.3" type="line"/>
      <point x="490.5" y="37.8"/>
      <point x="456.9" y="17.1"/>
      <point x="429.6" y="16.8" type="curve" smooth="yes"/>
      <point x="410.1" y="17.1"/>
      <point x="400.8" y="22.8"/>
      <point x="417.6" y="82.8" type="curve" smooth="yes"/>
      <point x="466.8" y="271.2" type="line" smooth="yes"/>
      <point x="489.6" y="358.8"/>
      <point x="505.2" y="441.6"/>
      <point x="439.2" y="441.6" type="curve" smooth="yes"/>
      <point x="318" y="441.9"/>
      <point x="194.1" y="278.1"/>
      <point x="136.8" y="109.2" type="curve"/>
      <point x="231.3" y="502.8" type="line" smooth="yes"/>
      <point x="248.7" y="575.7"/>
      <point x="228.6" y="603"/>
      <point x="186.3" y="601.8" type="curve" smooth="yes"/>
      <point x="165.3" y="601.2"/>
      <point x="123.3" y="585.9"/>
      <point x="73.5" y="557.4" type="curve"/>
      <point x="87.9" y="531" type="line"/>
      <point x="128.4" y="554.1"/>
      <point x="168.3" y="570.9"/>
      <point x="185.1" y="571.8" type="curve" smooth="yes"/>
      <point x="205.2" y="573"/>
      <point x="213.3" y="557.1"/>
      <point x="200.4" y="502.8" type="curve" smooth="yes"/>
      <point x="80.4" y="0" type="line"/>
      <point x="118.8" y="0" type="line"/>
      <point x="152.1" y="141"/>
      <point x="303" y="411.9"/>
      <point x="430.8" y="412.8" type="curve" smooth="yes"/>
      <point x="475.2" y="411.6"/>
      <point x="457.2" y="351.6"/>
      <point x="438" y="279.6" type="curve" smooth="yes"/>
      <point x="381.6" y="61.2" type="line" smooth="yes"/>
      <point x="374.4" y="33.6"/>
      <point x="375.6" y="-13.2"/>
      <point x="424.8" y="-13.2" type="curve" smooth="yes"/>
      <point x="463.2" y="-13.2"/>
      <point x="506.1" y="12.9"/>
    </contour>
  </outline>
</glyph>
<glyph name="j" format="1">
  <advance width="600"/>
  <unicode hex="006A"/>
  <outline>
    <contour>
      <point x="458.4" y="352.8" type="line" smooth="yes"/>
      <point x="472" y="416"/>
      <point x="443" y="442"/>
      <point x="400.8" y="442.8" type="curve" smooth="yes"/>
      <point x="339" y="444"/>
      <point x="282.6" y="424.2"/>
      <point x="232.8" y="371.4" type="curve"/>
      <point x="254.4" y="350.4" type="line"/>
      <point x="309.3" y="404.7"/>
      <point x="360.6" y="415.5"/>
      <point x="398.4" y="415.2" type="curve" smooth="yes"/>
      <point x="430" y="415"/>
      <point x="437" y="394"/>
      <point x="428.4" y="355.2" type="curve" smooth="yes"/>
      <point x="388.8" y="178.8" type="line" smooth="yes"/>
      <point x="325" y="-104"/>
      <point x="237" y="-136"/>
      <point x="158.4" y="-135.6" type="curve" smooth="yes"/>
      <point x="100" y="-135"/>
      <point x="81" y="-114"/>
      <point x="64.8" y="-98.4" type="curve"/>
      <point x="102.9" y="-101.1"/>
      <point x="123.6" y="-71.1"/>
      <point x="123.3" y="-46.8" type="curve" smooth="yes"/>
      <point x="122.7" y="-6"/>
      <point x="85.5" y="7.2"/>
      <point x="73.2" y="6.6" type="curve" smooth="yes"/>
      <point x="47.1" y="5.4"/>
      <point x="16.2" y="-5.1"/>
      <point x="18" y="-57.6" type="curve" smooth="yes"/>
      <point x="20.1" y="-117.9"/>
      <point x="79" y="-163"/>
      <point x="158.4" y="-163.2" type="curve" smooth="yes"/>
      <point x="255" y="-163"/>
      <point x="353" y="-124"/>
      <point x="420" y="178.8" type="curve" smooth="yes"/>
    </contour>
    <component base="dotaccent" xOffset="86" yOffset="-1"/>
  </outline>
</glyph>
<glyph name="k" format="1">
  <advance width="600"/>
  <unicode hex="006B"/>
  <outline>
    <contour>
      <point x="496.8" y="80.4" type="line"/>
      <point x="469.2" y="32.4"/>
      <point x="454" y="17"/>
      <point x="433.2" y="16.8" type="curve" smooth="yes"/>
      <point x="405.9" y="17.1"/>
      <point x="386.1" y="39"/>
      <point x="361.5" y="106.2" type="curve" smooth="yes"/>
      <point x="344.1" y="153.9"/>
      <point x="293.7" y="205.2"/>
      <point x="209.7" y="201.3" type="curve"/>
      <point x="261.3" y="225.9"/>
      <point x="318" y="252"/>
      <point x="356.4" y="271.2" type="curve" smooth="yes"/>
      <point x="418.8" y="300"/>
      <point x="459.9" y="321"/>
      <point x="461.4" y="381.6" type="curve" smooth="yes"/>
      <point x="462.9" y="440.1"/>
      <point x="427.2" y="452.7"/>
      <point x="406.2" y="450.3" type="curve" smooth="yes"/>
      <point x="395.1" y="449.1"/>
      <point x="360" y="440.1"/>
      <point x="360" y="400.8" type="curve" smooth="yes"/>
      <point x="360" y="371.7"/>
      <point x="387.9" y="339.9"/>
      <point x="426.6" y="352.8" type="curve"/>
      <point x="414.9" y="336"/>
      <point x="399" y="325.8"/>
      <point x="339.6" y="296.4" type="curve" smooth="yes"/>
      <point x="184.8" y="219.6" type="line"/>
      <point x="173.7" y="175.8" type="line"/>
      <point x="270.9" y="180.3"/>
      <point x="316.5" y="137.1"/>
      <point x="332.7" y="96.9" type="curve" smooth="yes"/>
      <point x="361.8" y="24"/>
      <point x="385.5" y="-13.2"/>
      <point x="432" y="-13.2" type="curve" smooth="yes"/>
      <point x="463.2" y="-13.2"/>
      <point x="488.4" y="9.6"/>
      <point x="518.4" y="63.6" type="curve"/>
    </contour>
    <contour>
      <point x="255.6" y="500.4" type="line" smooth="yes"/>
      <point x="271.5" y="576.3"/>
      <point x="254.1" y="603.9"/>
      <point x="211.2" y="602.7" type="curve" smooth="yes"/>
      <point x="190.2" y="601.8"/>
      <point x="148.2" y="586.8"/>
      <point x="98.4" y="558.3" type="curve"/>
      <point x="112.8" y="531.9" type="line"/>
      <point x="153.3" y="555"/>
      <point x="193.2" y="571.8"/>
      <point x="210" y="572.7" type="curve" smooth="yes"/>
      <point x="230.7" y="573.9"/>
      <point x="236.7" y="557.7"/>
      <point x="224.7" y="500.4" type="curve" smooth="yes"/>
      <point x="118.8" y="0" type="line"/>
      <point x="150" y="0" type="line"/>
    </contour>
  </outline>
</glyph>
<glyph name="l" format="1">
  <advance width="600"/>
  <unicode hex="006C"/>
  <outline>
    <contour>
      <point x="491.7" y="88.8" type="curve"/>
      <point x="466.5" y="104.7" type="line"/>
      <point x="434.4" y="54"/>
      <point x="395.7" y="17.1"/>
      <point x="341.7" y="16.8" type="curve" smooth="yes"/>
      <point x="299.7" y="16.5"/>
      <point x="254.7" y="30.9"/>
      <point x="288.9" y="150" type="curve" smooth="yes"/>
      <point x="383.7" y="478.8" type="line" smooth="yes"/>
      <point x="408.6" y="564.9"/>
      <point x="377.7" y="597.9"/>
      <point x="330.9" y="600" type="curve" smooth="yes"/>
      <point x="266.7" y="603"/>
      <point x="168.6" y="546.9"/>
      <point x="136.5" y="492" type="curve"/>
      <point x="153.3" y="470.4" type="line"/>
      <point x="187.8" y="522"/>
      <point x="282.6" y="573"/>
      <point x="328.5" y="572.4" type="curve" smooth="yes"/>
      <point x="369.6" y="571.8"/>
      <point x="367.5" y="531.9"/>
      <point x="350.1" y="471.6" type="curve" smooth="yes"/>
      <point x="256.5" y="147.6" type="line" smooth="yes"/>
      <point x="217.5" y="12.9"/>
      <point x="292.8" y="-12.9"/>
      <point x="341.7" y="-13.2" type="curve" smooth="yes"/>
      <point x="405.6" y="-13.5"/>
      <point x="451.8" y="26.1"/>
    </contour>
    <contour>
      <point x="348.6" y="600.9" type="move" name="top"/>
    </contour>
  </outline>
</glyph>
<glyph name="m" format="1">
  <advance width="600"/>
  <unicode hex="006D"/>
  <outline>
    <contour>
      <point x="513" y="442.5" type="curve" smooth="yes"/>
      <point x="450" y="442.5"/>
      <point x="426" y="378.6"/>
      <point x="378.6" y="291" type="curve" smooth="yes"/>
      <point x="346.5" y="231.6"/>
      <point x="319.5" y="173.4"/>
      <point x="289.8" y="108.9" type="curve" smooth="yes"/>
      <point x="239.4" y="0" type="line"/>
      <point x="270.3" y="0" type="line"/>
      <point x="282" y="60.6"/>
      <point x="343.8" y="180"/>
      <point x="400.8" y="278.4" type="curve" smooth="yes"/>
      <point x="461.7" y="383.7"/>
      <point x="480.9" y="413.1"/>
      <point x="506.1" y="413.4" type="curve" smooth="yes"/>
      <point x="546" y="414"/>
      <point x="534.3" y="361.8"/>
      <point x="524.4" y="315.6" type="curve" smooth="yes"/>
      <point x="476.7" y="90" type="line" smooth="yes"/>
      <point x="460.8" y="14.7"/>
      <point x="478.8" y="-36.9"/>
      <point x="556.8" y="-3" type="curve"/>
      <point x="546" y="23.7" type="line"/>
      <point x="492.6" y="4.2"/>
      <point x="494.1" y="26.4"/>
      <point x="506.4" y="84.6" type="curve" smooth="yes"/>
      <point x="554.1" y="310.5" type="line" smooth="yes"/>
      <point x="573.9" y="403.8"/>
      <point x="549.9" y="442.5"/>
    </contour>
    <contour>
      <point x="49.5" y="436.8" type="curve"/>
      <point x="57.3" y="408.3" type="line"/>
      <point x="64.8" y="410.7"/>
      <point x="71.1" y="412.2"/>
      <point x="75.9" y="412.5" type="curve" smooth="yes"/>
      <point x="105.3" y="413.7"/>
      <point x="99" y="379.2"/>
      <point x="91.5" y="343.8" type="curve" smooth="yes"/>
      <point x="18.9" y="-0.3" type="line"/>
      <point x="48.3" y="0" type="line"/>
      <point x="60" y="60.6"/>
      <point x="129" y="175.8"/>
      <point x="180.3" y="277.5" type="curve" smooth="yes"/>
      <point x="225.6" y="367.5"/>
      <point x="260.4" y="413.4"/>
      <point x="284.1" y="413.7" type="curve" smooth="yes"/>
      <point x="324" y="414.3"/>
      <point x="312.3" y="362.1"/>
      <point x="302.4" y="315.9" type="curve" smooth="yes"/>
      <point x="235.5" y="0" type="line"/>
      <point x="266.4" y="0" type="line"/>
      <point x="332.1" y="310.8" type="line" smooth="yes"/>
      <point x="352.8" y="408.3"/>
      <point x="327.9" y="442.8"/>
      <point x="291" y="442.8" type="curve" smooth="yes"/>
      <point x="228" y="442.8"/>
      <point x="204" y="378.9"/>
      <point x="156.6" y="291.3" type="curve" smooth="yes"/>
      <point x="124.5" y="231.9"/>
      <point x="90.3" y="150.6"/>
      <point x="60.6" y="86.1" type="curve"/>
      <point x="90.3" y="195.9"/>
      <point x="110.4" y="288.3"/>
      <point x="120" y="338.7" type="curve" smooth="yes"/>
      <point x="135.6" y="421.5"/>
      <point x="114" y="455.1"/>
    </contour>
  </outline>
</glyph>
<glyph name="n" format="1">
  <advance width="600"/>
  <unicode hex="006E"/>
  <outline>
    <contour>
      <point x="568.8" y="54" type="curve"/>
      <point x="548.1" y="75.6" type="line"/>
      <point x="508.5" y="37.8"/>
      <point x="474.9" y="17.1"/>
      <point x="447.6" y="16.8" type="curve" smooth="yes"/>
      <point x="428.1" y="16.5"/>
      <point x="420" y="22.5"/>
      <point x="435.6" y="82.8" type="curve" smooth="yes"/>
      <point x="484.8" y="271.2" type="line" smooth="yes"/>
      <point x="507.6" y="358.8"/>
      <point x="523.2" y="441.6"/>
      <point x="457.2" y="441.6" type="curve" smooth="yes"/>
      <point x="382.2" y="441.6"/>
      <point x="309.6" y="378.9"/>
      <point x="246.6" y="291.3" type="curve" smooth="yes"/>
      <point x="207.9" y="237.3"/>
      <point x="172.5" y="173.7"/>
      <point x="142.8" y="109.2" type="curve"/>
      <point x="172.5" y="219"/>
      <point x="185.4" y="288.3"/>
      <point x="195" y="338.7" type="curve" smooth="yes"/>
      <point x="207.6" y="402"/>
      <point x="203.7" y="444"/>
      <point x="152.1" y="442.5" type="curve" smooth="yes"/>
      <point x="131.1" y="441.6"/>
      <point x="89.1" y="426.6"/>
      <point x="39.3" y="398.1" type="curve"/>
      <point x="53.7" y="371.7" type="line"/>
      <point x="94.2" y="394.8"/>
      <point x="134.1" y="411.6"/>
      <point x="150.9" y="412.5" type="curve" smooth="yes"/>
      <point x="180.3" y="414.3"/>
      <point x="174" y="379.2"/>
      <point x="166.5" y="343.8" type="curve" smooth="yes"/>
      <point x="92.4" y="0" type="line"/>
      <point x="120" y="0" type="line"/>
      <point x="138.6" y="77.7"/>
      <point x="203.7" y="178.8"/>
      <point x="267.3" y="269.4" type="curve" smooth="yes"/>
      <point x="324.3" y="350.1"/>
      <point x="391.5" y="412.5"/>
      <point x="448.8" y="412.8" type="curve" smooth="yes"/>
      <point x="493.2" y="413.1"/>
      <point x="474.6" y="351.6"/>
      <point x="456" y="279.6" type="curve" smooth="yes"/>
      <point x="399.6" y="61.2" type="line" smooth="yes"/>
      <point x="392.4" y="33.6"/>
      <point x="393.6" y="-13.2"/>
      <point x="442.8" y="-13.2" type="curve" smooth="yes"/>
      <point x="481.2" y="-13.2"/>
      <point x="524.1" y="12.9"/>
    </contour>
    <contour>
      <point x="328.8" y="444" type="move" name="top"/>
    </contour>
  </outline>
</glyph>
<glyph name="o" format="1">
  <advance width="600"/>
  <unicode hex="006F"/>
  <outline>
    <contour>
      <point x="356.4" y="-15.6"/>
      <point x="476.4" y="82.8"/>
      <point x="506.4" y="213.6" type="curve" smooth="yes"/>
      <point x="535.2" y="340.8"/>
      <point x="452.4" y="442.8"/>
      <point x="337.2" y="442.8" type="curve" smooth="yes"/>
      <point x="219.6" y="442.8"/>
      <point x="99.6" y="344.4"/>
      <point x="69.6" y="213.6" type="curve" smooth="yes"/>
      <point x="42" y="86.4"/>
      <point x="123.6" y="-15.6"/>
      <point x="238.8" y="-15.6" type="curve" smooth="yes"/>
    </contour>
    <contour>
      <point x="145.2" y="15.6"/>
      <point x="74.4" y="91.2"/>
      <point x="100.8" y="213.6" type="curve" smooth="yes"/>
      <point x="123.6" y="321.6"/>
      <point x="231.6" y="411.6"/>
      <point x="328.8" y="412.8" type="curve" smooth="yes"/>
      <point x="429.6" y="411.6"/>
      <point x="501.6" y="332.4"/>
      <point x="475.2" y="213.6" type="curve" smooth="yes"/>
      <point x="451.2" y="106.8"/>
      <point x="338.4" y="14.4"/>
      <point x="244.8" y="14.4" type="curve" smooth="yes"/>
    </contour>
    <contour>
      <point x="366" y="444" type="move" name="top"/>
    </contour>
  </outline>
</glyph>
<glyph name="p" format="1">
  <advance width="600"/>
  <unicode hex="0070"/>
  <outline>
    <contour>
      <point x="163.2" y="51.6" type="curve"/>
      <point x="200.4" y="208.8" type="line"/>
      <point x="317" y="355"/>
      <point x="363" y="412"/>
      <point x="426" y="411.6" type="curve" smooth="yes"/>
      <point x="483" y="411"/>
      <point x="510" y="363"/>
      <point x="511.2" y="301.2" type="curve" smooth="yes"/>
      <point x="513" y="184"/>
      <point x="436" y="16"/>
      <point x="301.2" y="16.8" type="curve" smooth="yes"/>
      <point x="256" y="17"/>
      <point x="197" y="31"/>
    </contour>
    <contour>
      <point x="541.2" y="298.8" type="curve"/>
      <point x="541.2" y="378"/>
      <point x="507.6" y="441.6"/>
      <point x="430.8" y="441.6" type="curve" smooth="yes"/>
      <point x="358.8" y="441.6"/>
      <point x="331.2" y="411.6"/>
      <point x="210" y="266.4" type="curve"/>
      <point x="224.4" y="334.8" type="line" smooth="yes"/>
      <point x="241.2" y="415.2"/>
      <point x="226.8" y="444"/>
      <point x="182.4" y="442.8" type="curve" smooth="yes"/>
      <point x="162" y="441.6"/>
      <point x="120" y="427.2"/>
      <point x="69.6" y="398.4" type="curve"/>
      <point x="84" y="372" type="line"/>
      <point x="124.8" y="394.8"/>
      <point x="164.4" y="411.6"/>
      <point x="181.2" y="412.8" type="curve" smooth="yes"/>
      <point x="202.8" y="414"/>
      <point x="208" y="397"/>
      <point x="194.4" y="336" type="curve" smooth="yes"/>
      <point x="91.2" y="-130.8" type="line"/>
      <point x="3" y="-130.8" type="line"/>
      <point x="-3" y="-159.6" type="line"/>
      <point x="211.8" y="-159.6" type="line"/>
      <point x="217.8" y="-130.8" type="line"/>
      <point x="122.4" y="-130.8" type="line"/>
      <point x="156" y="20.4" type="line"/>
      <point x="195.6" y="3.6"/>
      <point x="253.2" y="-13.2"/>
      <point x="301.2" y="-13.2" type="curve" smooth="yes"/>
      <point x="451.2" y="-14.4"/>
      <point x="542.4" y="165.6"/>
    </contour>
  </outline>
</glyph>
<glyph name="r" format="1">
  <advance width="600"/>
  <unicode hex="0072"/>
  <outline>
    <contour>
      <point x="584.1" y="345.6" type="curve" smooth="yes"/>
      <point x="583.5" y="398.1"/>
      <point x="547.2" y="443.1"/>
      <point x="486" y="442.8" type="curve" smooth="yes"/>
      <point x="366" y="442.2"/>
      <point x="239.4" y="240.9"/>
      <point x="193.5" y="110.4" type="curve"/>
      <point x="222.9" y="237.3"/>
      <point x="240.3" y="320.1"/>
      <point x="240.3" y="371.4" type="curve" smooth="yes"/>
      <point x="240.6" y="423"/>
      <point x="223.2" y="442.5"/>
      <point x="187.8" y="442.8" type="curve" smooth="yes"/>
      <point x="162.9" y="442.8"/>
      <point x="125.1" y="426.9"/>
      <point x="76.2" y="396" type="curve"/>
      <point x="90.6" y="369.6" type="line"/>
      <point x="135" y="398.1"/>
      <point x="168" y="413.4"/>
      <point x="187.8" y="412.8" type="curve" smooth="yes"/>
      <point x="204.6" y="412.2"/>
      <point x="213" y="402.6"/>
      <point x="213" y="371.4" type="curve" smooth="yes"/>
      <point x="213.3" y="323.7"/>
      <point x="194.1" y="225.3"/>
      <point x="154.8" y="31.2" type="curve"/>
      <point x="80.1" y="30" type="line"/>
      <point x="73.5" y="0" type="line"/>
      <point x="264.3" y="0" type="line"/>
      <point x="270.9" y="30" type="line"/>
      <point x="183.6" y="31.2" type="line"/>
      <point x="219" y="149.1"/>
      <point x="366.9" y="411.9"/>
      <point x="486" y="412.8" type="curve" smooth="yes"/>
      <point x="522" y="413.1"/>
      <point x="554.1" y="381.9"/>
      <point x="552" y="361.2" type="curve"/>
      <point x="515.4" y="379.2"/>
      <point x="473.1" y="355.5"/>
      <point x="474.6" y="311.4" type="curve" smooth="yes"/>
      <point x="475.2" y="287.7"/>
      <point x="497.7" y="261.9"/>
      <point x="524.4" y="262.8" type="curve" smooth="yes"/>
      <point x="566.1" y="264.3"/>
      <point x="584.7" y="296.1"/>
    </contour>
    <contour>
      <point x="291.6" y="444" type="move" name="top"/>
    </contour>
  </outline>
</glyph>
<glyph name="t" format="1">
  <advance width="600"/>
  <unicode hex="0074"/>
  <outline>
    <contour>
      <point x="493.2" y="57.6" type="curve"/>
      <point x="474" y="81.6" type="line"/>
      <point x="456.9" y="63"/>
      <point x="409.2" y="15.9"/>
      <point x="343.5" y="16.8" type="curve" smooth="yes"/>
      <point x="268.2" y="17.7"/>
      <point x="198.6" y="51"/>
      <point x="246" y="270" type="curve" smooth="yes"/>
      <point x="318" y="602.4" type="line"/>
      <point x="284.4" y="602.4" type="line"/>
      <point x="216" y="271.2" type="line" smooth="yes"/>
      <point x="161.1" y="5.1"/>
      <point x="274.2" y="-13.5"/>
      <point x="343.5" y="-13.2" type="curve" smooth="yes"/>
      <point x="417.3" y="-12.9"/>
      <point x="471.9" y="36"/>
    </contour>
    <contour>
      <point x="495.6" y="429.6" type="line"/>
      <point x="102" y="429.6" type="line"/>
      <point x="96" y="399.6" type="line"/>
      <point x="488.4" y="399.6" type="line"/>
    </contour>
  </outline>
</glyph>
<glyph name="x" format="1">
  <advance width="600"/>
  <unicode hex="0078"/>
  <outline>
    <contour>
      <point x="63" y="35" type="curve"/>
      <point x="48" y="7" type="line"/>
      <point x="69" y="-5"/>
      <point x="86" y="-13"/>
      <point x="102" y="-13" type="curve" smooth="yes"/>
      <point x="165" y="-13"/>
      <point x="221" y="84"/>
      <point x="303" y="199" type="curve"/>
      <point x="326" y="67"/>
      <point x="352" y="0"/>
      <point x="408" y="0" type="curve" smooth="yes"/>
      <point x="472" y="0"/>
      <point x="520" y="57"/>
      <point x="565" y="118" type="curve"/>
      <point x="541" y="141" type="line"/>
      <point x="508" y="100"/>
      <point x="470" y="33"/>
      <point x="408" y="33" type="curve" smooth="yes"/>
      <point x="362" y="33"/>
      <point x="345" y="126"/>
      <point x="329" y="237" type="curve"/>
      <point x="384" y="316"/>
      <point x="434" y="370"/>
      <point x="478" y="393" type="curve"/>
      <point x="477" y="361"/>
      <point x="492" y="328"/>
      <point x="528" y="327.6" type="curve" smooth="yes"/>
      <point x="573" y="327"/>
      <point x="592" y="361"/>
      <point x="592.8" y="387.6" type="curve" smooth="yes"/>
      <point x="594" y="421"/>
      <point x="559" y="442"/>
      <point x="522" y="442" type="curve" smooth="yes"/>
      <point x="493" y="442"/>
      <point x="472" y="429"/>
      <point x="468" y="427" type="curve" smooth="yes"/>
      <point x="418" y="402"/>
      <point x="374" y="355"/>
      <point x="325" y="283" type="curve"/>
      <point x="317" y="357"/>
      <point x="295" y="439"/>
      <point x="231" y="439" type="curve" smooth="yes"/>
      <point x="180" y="439"/>
      <point x="127" y="398"/>
      <point x="90" y="366" type="curve"/>
      <point x="110" y="340" type="line"/>
      <point x="149" y="373"/>
      <point x="193" y="405"/>
      <point x="229" y="405" type="curve" smooth="yes"/>
      <point x="271" y="405"/>
      <point x="284" y="363"/>
      <point x="298" y="247" type="curve"/>
      <point x="228" y="147"/>
      <point x="152" y="20"/>
      <point x="103" y="20" type="curve" smooth="yes"/>
      <point x="91" y="20"/>
      <point x="78" y="26"/>
    </contour>
  </outline>
</glyph>
<glyph name="braceleft" format="1">
  <advance width="600"/>
  <unicode hex="007B"/>
  <note>
    braceleft
  </note>
  <outline>
    <contour>
      <point x="153.6" y="240" type="curve"/>
      <point x="152.1" y="210" type="line"/>
      <point x="204.9" y="186.3"/>
      <point x="214.5" y="155.7"/>
      <point x="201.6" y="102.3" type="curve" smooth="yes"/>
      <point x="183.6" y="27" type="line" smooth="yes"/>
      <point x="158.7" y="-76.8"/>
      <point x="218.4" y="-163.8"/>
      <point x="310.5" y="-168.9" type="curve" smooth="yes"/>
      <point x="377.4" y="-172.5"/>
      <point x="435.9" y="-128.1"/>
      <point x="439.2" y="-63.3" type="curve" smooth="yes"/>
      <point x="440.7" y="-33.3"/>
      <point x="423" y="-6.6"/>
      <point x="395.1" y="-5.1" type="curve" smooth="yes"/>
      <point x="369" y="-3.6"/>
      <point x="345.3" y="-18.3"/>
      <point x="343.8" y="-46.2" type="curve" smooth="yes"/>
      <point x="342.6" y="-68.4"/>
      <point x="359.7" y="-90"/>
      <point x="381.6" y="-91.5" type="curve" smooth="yes"/>
      <point x="390.6" y="-92.1"/>
      <point x="401.7" y="-89.4"/>
      <point x="409.2" y="-81.9" type="curve"/>
      <point x="400.2" y="-121.2"/>
      <point x="352.8" y="-141"/>
      <point x="312.9" y="-138.9" type="curve" smooth="yes"/>
      <point x="238.2" y="-135"/>
      <point x="193.8" y="-67.5"/>
      <point x="213.3" y="21.6" type="curve" smooth="yes"/>
      <point x="230.1" y="98.7" type="line" smooth="yes"/>
      <point x="244.5" y="165"/>
      <point x="233.1" y="208.8"/>
      <point x="188.7" y="223.2" type="curve"/>
      <point x="234.3" y="232.8"/>
      <point x="261.6" y="275.7"/>
      <point x="282" y="340.5" type="curve" smooth="yes"/>
      <point x="306" y="417.3" type="line" smooth="yes"/>
      <point x="333.3" y="504.3"/>
      <point x="347.1" y="570.3"/>
      <point x="422.1" y="566.4" type="curve" smooth="yes"/>
      <point x="462" y="564.3"/>
      <point x="506.7" y="540"/>
      <point x="511.5" y="499.5" type="curve"/>
      <point x="505.2" y="507.9"/>
      <point x="494.1" y="511.5"/>
      <point x="485.4" y="512.1" type="curve" smooth="yes"/>
      <point x="463.5" y="513.6"/>
      <point x="444.3" y="493.2"/>
      <point x="443.1" y="471.3" type="curve" smooth="yes"/>
      <point x="441.6" y="443.1"/>
      <point x="463.5" y="426"/>
      <point x="489.6" y="424.8" type="curve" smooth="yes"/>
      <point x="517.5" y="423.6"/>
      <point x="538.2" y="448.2"/>
      <point x="539.7" y="478.2" type="curve" smooth="yes"/>
      <point x="543" y="543"/>
      <point x="489.6" y="592.8"/>
      <point x="422.7" y="596.4" type="curve" smooth="yes"/>
      <point x="330.6" y="601.5"/>
      <point x="307.5" y="517.2"/>
      <point x="276" y="414.9" type="curve" smooth="yes"/>
      <point x="252.9" y="339.9" type="line" smooth="yes"/>
      <point x="236.7" y="287.7"/>
      <point x="208.5" y="258.3"/>
    </contour>
  </outline>
</glyph>
<glyph name="asciitilde" format="1">
  <advance width="600"/>
  <unicode hex="007E"/>
  <note>
    asciitilde
  </note>
  <outline>
    <contour>
      <point x="400" y="239" type="curve" smooth="yes"/>
      <point x="469" y="239"/>
      <point x="508" y="293"/>
      <point x="508" y="396" type="curve" smooth="yes"/>
      <point x="508" y="430" type="line"/>
      <point x="478" y="430" type="line"/>
      <point x="478" y="396" type="line" smooth="yes"/>
      <point x="478" y="315"/>
      <point x="448" y="269"/>
      <point x="400" y="269" type="curve" smooth="yes"/>
      <point x="361" y="269"/>
      <point x="343" y="288"/>
      <point x="319" y="345" type="curve" smooth="yes"/>
      <point x="291" y="410"/>
      <point x="263" y="443"/>
      <point x="206" y="443" type="curve" smooth="yes"/>
      <point x="137" y="443"/>
      <point x="93" y="386"/>
      <point x="93" y="285" type="curve" smooth="yes"/>
      <point x="93" y="250" type="line"/>
      <point x="123" y="250" type="line"/>
      <point x="123" y="285" type="line" smooth="yes"/>
      <point x="123" y="364"/>
      <point x="158" y="413"/>
      <point x="206" y="413" type="curve" smooth="yes"/>
      <point x="242" y="413"/>
      <point x="264" y="392"/>
      <point x="292" y="331" type="curve" smooth="yes"/>
      <point x="320" y="270"/>
      <point x="348" y="239"/>
    </contour>
  </outline>
</glyph>
<glyph name="yen" format="1">
  <advance width="600"/>
  <unicode hex="00A5"/>
  <outline>
    <contour>
      <point x="133.2" y="420" type="line"/>
      <point x="127.2" y="390" type="line"/>
      <point x="504" y="390" type="line"/>
      <point x="510" y="420" type="line"/>
    </contour>
    <contour>
      <point x="120" y="328.8" type="line"/>
      <point x="114" y="298.8" type="line"/>
      <point x="490.8" y="298.8" type="line"/>
      <point x="496.8" y="328.8" type="line"/>
    </contour>
    <component base="Y" xOffset="-12"/>
  </outline>
</glyph>
<glyph name="brokenbar" format="1">
  <advance width="614"/>
  <unicode hex="00A6"/>
  <note>
    brokenbar
  </note>
  <outline>
    <contour>
      <point x="398.4" y="590.4" type="line"/>
      <point x="367.2" y="590.4" type="line"/>
      <point x="302.4" y="292.8" type="line"/>
      <point x="333.6" y="292.8" type="line"/>
    </contour>
    <contour>
      <point x="302.4" y="136.8" type="line"/>
      <point x="271.2" y="136.8" type="line"/>
      <point x="206.4" y="-160.8" type="line"/>
      <point x="237.6" y="-160.8" type="line"/>
    </contour>
  </outline>
</glyph>
<glyph name="logicalnot" format="1">
  <advance width="600"/>
  <unicode hex="00AC"/>
  <note>
    logicalnot
  </note>
  <outline>
    <contour>
      <point x="104" y="301" type="line"/>
      <point x="104" y="331" type="line"/>
      <point x="496" y="331" type="line"/>
      <point x="496" y="127" type="line"/>
      <point x="465" y="127" type="line"/>
      <point x="466" y="301" type="line"/>
    </contour>
  </outline>
</glyph>
<glyph name="acute" format="1">
  <advance width="600"/>
  <unicode hex="00B4"/>
  <outline>
    <contour>
      <point x="183.6" y="499.2" type="line"/>
      <point x="493.2" y="591.6" type="line"/>
      <point x="501.6" y="554.4" type="line"/>
      <point x="188.4" y="478.8" type="line"/>
    </contour>
    <contour>
      <point x="358.8" y="442.8" type="move" name="_top"/>
    </contour>
  </outline>
</glyph>
<glyph name="cedilla" format="1">
  <advance width="600"/>
  <unicode hex="00B8"/>
  <outline>
    <contour>
      <point x="268.8" y="7.2" type="line"/>
      <point x="243.6" y="10.8" type="line"/>
      <point x="220.8" y="-48" type="line"/>
      <point x="262.8" y="-61.2"/>
      <point x="300" y="-70.8"/>
      <point x="300" y="-100.8" type="curve" smooth="yes"/>
      <point x="300" y="-166"/>
      <point x="204" y="-154"/>
      <point x="135.6" y="-110.4" type="curve"/>
      <point x="122.4" y="-130.8" type="line"/>
      <point x="170" y="-161"/>
      <point x="207.6" y="-172.8"/>
      <point x="238.8" y="-172.8" type="curve" smooth="yes"/>
      <point x="286.8" y="-172.8"/>
      <point x="324" y="-140"/>
      <point x="322.8" y="-100.8" type="curve"/>
      <point x="324" y="-66"/>
      <point x="299" y="-43"/>
      <point x="252" y="-33.6" type="curve"/>
    </contour>
    <contour>
      <point x="258" y="0" type="move" name="_bottom"/>
    </contour>
  </outline>
</glyph>
<glyph name="onequarter" format="1">
  <advance width="600"/>
  <unicode hex="00BC"/>
  <note>
    onequarter
  </note>
  <outline>
    <contour>
      <point x="101" y="-13" type="line"/>
      <point x="532" y="590" type="line"/>
      <point x="512" y="603" type="line"/>
      <point x="81" y="1" type="line"/>
    </contour>
    <contour>
      <point x="40" y="455" type="curve"/>
      <point x="54" y="436" type="line"/>
      <point x="109" y="479"/>
      <point x="122" y="493"/>
      <point x="159" y="551" type="curve"/>
      <point x="159" y="347" type="line"/>
      <point x="58" y="347" type="line"/>
      <point x="58" y="323" type="line"/>
      <point x="262" y="323" type="line"/>
      <point x="262" y="347" type="line"/>
      <point x="183" y="347" type="line"/>
      <point x="183" y="590" type="line"/>
      <point x="151" y="590" type="line"/>
      <point x="123" y="531"/>
      <point x="87" y="492"/>
    </contour>
    <contour>
      <point x="290" y="60" type="curve"/>
      <point x="290" y="33" type="line"/>
      <point x="457" y="33" type="line"/>
      <point x="457" y="-14" type="line"/>
      <point x="481" y="-14" type="line"/>
      <point x="481" y="33" type="line"/>
      <point x="555" y="33" type="line"/>
      <point x="555" y="57" type="line"/>
      <point x="481" y="57" type="line"/>
      <point x="481" y="185" type="line"/>
      <point x="457" y="185" type="line"/>
      <point x="457" y="57" type="line"/>
      <point x="318" y="57" type="line"/>
      <point x="381" y="141"/>
      <point x="410" y="193"/>
      <point x="431" y="261" type="curve"/>
      <point x="409" y="268" type="line"/>
      <point x="387" y="195"/>
      <point x="345" y="129"/>
    </contour>
  </outline>
</glyph>
<glyph name="AE" format="1">
  <advance width="600"/>
  <unicode hex="00C6"/>
  <outline>
    <contour>
      <point x="661.8" y="590.4" type="line"/>
      <point x="253.8" y="590.4" type="line" smooth="yes"/>
      <point x="173.1" y="590.4"/>
      <point x="143.1" y="497.1"/>
      <point x="143.4" y="468" type="curve"/>
      <point x="173.4" y="468" type="line"/>
      <point x="173.1" y="483.9"/>
      <point x="192.9" y="560.4"/>
      <point x="253.8" y="560.4" type="curve" smooth="yes"/>
      <point x="318.6" y="560.4" type="line"/>
      <point x="211.8" y="30" type="line"/>
      <point x="191.4" y="30" type="line"/>
      <point x="184.2" y="0" type="line"/>
      <point x="547.8" y="0" type="line"/>
      <point x="587.4" y="210" type="line"/>
      <point x="557.4" y="213.6" type="line"/>
      <point x="522.6" y="30" type="line"/>
      <point x="241.8" y="30" type="line"/>
      <point x="292.2" y="279.6" type="line"/>
      <point x="453" y="279.6" type="line"/>
      <point x="432.6" y="189.6" type="line"/>
      <point x="463.8" y="189.6" type="line"/>
      <point x="507" y="380.4" type="line"/>
      <point x="475.8" y="380.4" type="line"/>
      <point x="460.2" y="309.6" type="line"/>
      <point x="298.2" y="309.6" type="line"/>
      <point x="348.6" y="560.4" type="line"/>
      <point x="624.6" y="560.4" type="line"/>
      <point x="587.4" y="380.4" type="line"/>
      <point x="618.6" y="380.4" type="line"/>
    </contour>
    <contour>
      <point x="301.8" y="590.4" type="line"/>
      <point x="-4.5" y="30" type="line"/>
      <point x="-36" y="30" type="line"/>
      <point x="-36" y="0" type="line"/>
      <point x="64.2" y="0" type="line"/>
      <point x="70.2" y="30" type="line"/>
      <point x="28.2" y="30" type="line"/>
      <point x="316.2" y="555.6" type="line"/>
      <point x="346.2" y="590.4" type="line"/>
    </contour>
    <contour>
      <point x="129" y="270" type="line"/>
      <point x="129" y="240" type="line"/>
      <point x="277.8" y="240" type="line"/>
      <point x="277.8" y="270" type="line"/>
    </contour>
  </outline>
</glyph>
<glyph name="Eth" format="1">
  <advance width="600"/>
  <unicode hex="00D0"/>
  <outline>
    <contour>
      <point x="96" y="313.2" type="line"/>
      <point x="91.2" y="285.6" type="line"/>
      <point x="321" y="285" type="line"/>
      <point x="327" y="313" type="line"/>
    </contour>
    <component base="D"/>
  </outline>
</glyph>
<glyph name="Thorn" format="1">
  <advance width="600"/>
  <unicode hex="00DE"/>
  <outline>
    <contour>
      <point x="285.6" y="560.4" type="line"/>
      <point x="403.2" y="560.4" type="line"/>
      <point x="411.6" y="590.4" type="line"/>
      <point x="226.8" y="590.4" type="line"/>
      <point x="218.4" y="560.4" type="line"/>
      <point x="255.6" y="560.4" type="line"/>
      <point x="145.2" y="30" type="line"/>
      <point x="37.2" y="30" type="line"/>
      <point x="28.8" y="0" type="line"/>
      <point x="330" y="0" type="line"/>
      <point x="338.4" y="30" type="line"/>
      <point x="176.4" y="30" type="line"/>
      <point x="199.2" y="140.4" type="line"/>
      <point x="344.4" y="140.4" type="line" smooth="yes"/>
      <point x="484" y="140"/>
      <point x="595" y="187"/>
      <point x="596.4" y="309.6" type="curve" smooth="yes"/>
      <point x="598" y="406"/>
      <point x="516" y="443"/>
      <point x="408" y="442.8" type="curve" smooth="yes"/>
      <point x="261.6" y="442.8" type="line"/>
    </contour>
    <contour>
      <point x="256.8" y="412.8" type="line"/>
      <point x="399.6" y="412.8" type="line" smooth="yes"/>
      <point x="492" y="413"/>
      <point x="565" y="389"/>
      <point x="566.4" y="308.4" type="curve" smooth="yes"/>
      <point x="568" y="208"/>
      <point x="464" y="170"/>
      <point x="348" y="170.4" type="curve" smooth="yes"/>
      <point x="205.2" y="170.4" type="line"/>
    </contour>
    <component base="Swash" xOffset="-144"/>
  </outline>
</glyph>
<glyph name="ae" format="1">
  <advance width="600"/>
  <unicode hex="00E6"/>
  <outline>
    <contour>
      <point x="261.6" y="43.2" type="curve"/>
      <point x="244.8" y="66" type="line"/>
      <point x="149" y="-9"/>
      <point x="13" y="6"/>
      <point x="12" y="111.6" type="curve" smooth="yes"/>
      <point x="11" y="191"/>
      <point x="126" y="253"/>
      <point x="238.8" y="213.6" type="curve"/>
      <point x="247.2" y="243.6" type="line"/>
      <point x="107" y="287"/>
      <point x="-21" y="206"/>
      <point x="-18" y="112.8" type="curve" smooth="yes"/>
      <point x="-14" y="-23"/>
      <point x="152" y="-49"/>
    </contour>
    <contour>
      <point x="247.2" y="243.6" type="curve"/>
      <point x="228" y="217.2" type="line"/>
      <point x="390" y="166"/>
      <point x="582" y="213"/>
      <point x="584.4" y="342" type="curve" smooth="yes"/>
      <point x="586" y="426"/>
      <point x="522" y="445"/>
      <point x="481.2" y="442.8" type="curve" smooth="yes"/>
      <point x="348" y="436"/>
      <point x="212" y="326"/>
      <point x="208.8" y="158.4" type="curve" smooth="yes"/>
      <point x="207" y="54"/>
      <point x="293" y="-15"/>
      <point x="392.4" y="-13.2" type="curve" smooth="yes"/>
      <point x="477" y="-12"/>
      <point x="527" y="42"/>
      <point x="570" y="100.8" type="curve"/>
      <point x="547.2" y="122.4" type="line"/>
      <point x="520" y="81"/>
      <point x="472" y="19"/>
      <point x="391.2" y="16.8" type="curve" smooth="yes"/>
      <point x="306" y="14"/>
      <point x="238" y="73"/>
      <point x="238.8" y="157.2" type="curve" smooth="yes"/>
      <point x="240" y="314"/>
      <point x="374" y="411"/>
      <point x="482.4" y="412.8" type="curve" smooth="yes"/>
      <point x="539" y="414"/>
      <point x="555" y="383"/>
      <point x="554.4" y="342" type="curve" smooth="yes"/>
      <point x="553" y="246"/>
      <point x="384" y="198"/>
    </contour>
    <contour>
      <point x="199.2" y="442.8" type="curve" smooth="yes"/>
      <point x="134" y="444"/>
      <point x="70" y="405"/>
      <point x="70.8" y="360" type="curve" smooth="yes"/>
      <point x="71" y="329"/>
      <point x="91" y="302"/>
      <point x="127.2" y="302.4" type="curve" smooth="yes"/>
      <point x="166" y="303"/>
      <point x="186" y="334"/>
      <point x="186" y="360" type="curve" smooth="yes"/>
      <point x="186" y="383"/>
      <point x="176" y="400"/>
      <point x="158.4" y="406.8" type="curve"/>
      <point x="170" y="412"/>
      <point x="184" y="415"/>
      <point x="199.2" y="414" type="curve" smooth="yes"/>
      <point x="243" y="413"/>
      <point x="293" y="388"/>
      <point x="304.8" y="345.6" type="curve"/>
      <point x="331.2" y="358.8" type="line"/>
      <point x="312" y="408"/>
      <point x="256" y="441"/>
    </contour>
    <contour>
      <point x="335" y="444" type="move" name="top"/>
    </contour>
  </outline>
</glyph>
<glyph name="eth" format="1">
  <advance width="600"/>
  <unicode hex="00F0"/>
  <outline>
    <contour>
      <point x="231.6" y="488.4" type="line"/>
      <point x="454.8" y="578.4" type="line"/>
      <point x="440.4" y="604.8" type="line"/>
      <point x="217.2" y="514.8" type="line"/>
    </contour>
    <contour>
      <point x="207" y="573.9" type="line"/>
      <point x="236.1" y="566.1" type="line" smooth="yes"/>
      <point x="372.9" y="528.9"/>
      <point x="455.1" y="437.1"/>
      <point x="480" y="291.9" type="curve"/>
      <point x="443.1" y="351.9"/>
      <point x="375.9" y="390.9"/>
      <point x="300" y="390.9" type="curve" smooth="yes"/>
      <point x="195" y="390.9"/>
      <point x="108" y="300"/>
      <point x="108" y="191.1" type="curve" smooth="yes"/>
      <point x="108" y="72"/>
      <point x="200.1" y="-14.1"/>
      <point x="305.1" y="-14.1" type="curve" smooth="yes"/>
      <point x="426" y="-14.1"/>
      <point x="510" y="83.1"/>
      <point x="510" y="216" type="curve" smooth="yes"/>
      <point x="510" y="407.1"/>
      <point x="428.1" y="546"/>
      <point x="243.9" y="594.9" type="curve" smooth="yes"/>
      <point x="213.9" y="603" type="line"/>
    </contour>
    <contour>
      <point x="480" y="206.1" type="curve" smooth="yes"/>
      <point x="480" y="105"/>
      <point x="410.1" y="15.9"/>
      <point x="305.1" y="15.9" type="curve" smooth="yes"/>
      <point x="218.1" y="15.9"/>
      <point x="138" y="87.9"/>
      <point x="138" y="191.1" type="curve" smooth="yes"/>
      <point x="138" y="287.1"/>
      <point x="210.9" y="360.9"/>
      <point x="300" y="360.9" type="curve" smooth="yes"/>
      <point x="395.1" y="360.9"/>
      <point x="480" y="288.9"/>
    </contour>
    <contour>
      <point x="367.2" y="442.8" type="move" name="top"/>
    </contour>
  </outline>
</glyph>
<glyph name="Lslash" format="1">
  <advance width="600"/>
  <unicode hex="0141"/>
  <outline>
    <contour>
      <point x="324" y="378" type="line"/>
      <point x="36" y="236.4" type="line"/>
      <point x="48" y="210" type="line"/>
      <point x="336" y="351.6" type="line"/>
    </contour>
    <component base="L"/>
  </outline>
</glyph>
<glyph name="lslash" format="1">
  <advance width="600"/>
  <unicode hex="0142"/>
  <outline>
    <contour>
      <point x="442.8" y="378" type="line"/>
      <point x="154.8" y="236.4" type="line"/>
      <point x="166.8" y="210" type="line"/>
      <point x="454.8" y="351.6" type="line"/>
    </contour>
    <component base="l"/>
  </outline>
</glyph>
<glyph name="OE" format="1">
  <advance width="600"/>
  <unicode hex="0152"/>
  <outline>
    <contour>
      <point x="316.8" y="558" type="curve"/>
      <point x="324" y="590.4" type="line"/>
      <point x="211" y="589"/>
      <point x="92" y="511"/>
      <point x="37.2" y="355.2" type="curve" smooth="yes"/>
      <point x="-21" y="190"/>
      <point x="68" y="0"/>
      <point x="213.6" y="0" type="curve"/>
      <point x="212.4" y="30" type="line"/>
      <point x="85" y="30"/>
      <point x="17" y="207"/>
      <point x="67.2" y="349.2" type="curve" smooth="yes"/>
      <point x="119" y="495"/>
      <point x="224" y="558"/>
    </contour>
    <contour>
      <point x="645.6" y="590.4" type="line"/>
      <point x="321.6" y="590.4" type="line"/>
      <point x="208.8" y="30" type="line"/>
      <point x="208.8" y="30" type="line"/>
      <point x="207.6" y="0" type="line"/>
      <point x="520.8" y="0" type="line"/>
      <point x="565.2" y="210" type="line"/>
      <point x="535.2" y="213.6" type="line"/>
      <point x="495.6" y="30" type="line"/>
      <point x="238.8" y="30" type="line"/>
      <point x="289.2" y="279.6" type="line"/>
      <point x="450" y="279.6" type="line"/>
      <point x="429.6" y="189.6" type="line"/>
      <point x="460.8" y="189.6" type="line"/>
      <point x="504" y="380.4" type="line"/>
      <point x="472.8" y="380.4" type="line"/>
      <point x="457.2" y="309.6" type="line"/>
      <point x="295.2" y="309.6" type="line"/>
      <point x="346.8" y="560.4" type="line"/>
      <point x="608.4" y="560.4" type="line"/>
      <point x="571.2" y="380.4" type="line"/>
      <point x="602.4" y="380.4" type="line"/>
    </contour>
    <contour>
      <point x="430.8" y="590.4" type="move" name="top"/>
    </contour>
  </outline>
</glyph>
<glyph name="oe" format="1">
  <advance width="600"/>
  <unicode hex="0153"/>
  <outline>
    <contour>
      <point x="564" y="45.6" type="curve"/>
      <point x="543.6" y="70.8" type="line"/>
      <point x="509" y="33"/>
      <point x="471" y="17"/>
      <point x="424.8" y="16.8" type="curve" smooth="yes"/>
      <point x="338" y="16"/>
      <point x="305" y="71"/>
      <point x="308.4" y="157.2" type="curve" smooth="yes"/>
      <point x="315" y="312"/>
      <point x="398" y="411"/>
      <point x="480" y="412.8" type="curve" smooth="yes"/>
      <point x="531" y="414"/>
      <point x="585" y="391"/>
      <point x="588" y="342" type="curve" smooth="yes"/>
      <point x="594" y="240"/>
      <point x="440" y="196"/>
      <point x="304.8" y="243.6" type="curve"/>
      <point x="285.6" y="217.2" type="line"/>
      <point x="446" y="164"/>
      <point x="624" y="211"/>
      <point x="618" y="342" type="curve" smooth="yes"/>
      <point x="615" y="409"/>
      <point x="554" y="443"/>
      <point x="478.8" y="442.8" type="curve" smooth="yes"/>
      <point x="380" y="443"/>
      <point x="285" y="324"/>
      <point x="278.4" y="158.4" type="curve" smooth="yes"/>
      <point x="274" y="52"/>
      <point x="324" y="-14"/>
      <point x="426" y="-13.2" type="curve" smooth="yes"/>
      <point x="481" y="-13"/>
      <point x="529" y="10"/>
    </contour>
    <contour>
      <point x="284.4" y="116.4" type="curve"/>
      <point x="315.6" y="315.6" type="line"/>
      <point x="308" y="382"/>
      <point x="259" y="443"/>
      <point x="198" y="442.8" type="curve" smooth="yes"/>
      <point x="71" y="442"/>
      <point x="2" y="280"/>
      <point x="-2.4" y="140.4" type="curve" smooth="yes"/>
      <point x="-5" y="63"/>
      <point x="27" y="-12"/>
      <point x="117.6" y="-13.2" type="curve" smooth="yes"/>
      <point x="180" y="-14"/>
      <point x="245" y="37"/>
    </contour>
    <contour>
      <point x="288" y="284.4" type="curve" smooth="yes"/>
      <point x="290" y="161"/>
      <point x="216" y="16"/>
      <point x="116.4" y="16.8" type="curve" smooth="yes"/>
      <point x="53" y="17"/>
      <point x="28" y="68"/>
      <point x="27.6" y="140.4" type="curve" smooth="yes"/>
      <point x="27" y="259"/>
      <point x="87" y="407"/>
      <point x="198" y="415.2" type="curve" smooth="yes"/>
      <point x="250" y="419"/>
      <point x="287" y="355"/>
    </contour>
    <contour>
      <point x="321.6" y="444" type="move" name="top"/>
    </contour>
  </outline>
</glyph>
<glyph name="breve" format="1">
  <advance width="600"/>
  <unicode hex="02D8"/>
  <outline>
    <contour>
      <point x="249.6" y="590.4" type="line"/>
      <point x="257" y="531"/>
      <point x="308" y="483"/>
      <point x="372" y="483.6" type="curve" smooth="yes"/>
      <point x="436" y="484"/>
      <point x="492" y="530"/>
      <point x="493.2" y="590.4" type="curve"/>
      <point x="462" y="590.4" type="line"/>
      <point x="455" y="546"/>
      <point x="416" y="512"/>
      <point x="372" y="512.4" type="curve" smooth="yes"/>
      <point x="327" y="513"/>
      <point x="286" y="546"/>
      <point x="280.8" y="590.4" type="curve"/>
    </contour>
    <contour>
      <point x="372" y="443" type="move" name="_top"/>
    </contour>
  </outline>
</glyph>
<glyph name="ring" format="1">
  <advance width="600"/>
  <unicode hex="02DA"/>
  <outline>
    <contour>
      <point x="370.8" y="484.8" type="curve" smooth="yes"/>
      <point x="407" y="485"/>
      <point x="438" y="514"/>
      <point x="438" y="549.6" type="curve" smooth="yes"/>
      <point x="438" y="585"/>
      <point x="407" y="613"/>
      <point x="370.8" y="613.2" type="curve" smooth="yes"/>
      <point x="335" y="613"/>
      <point x="305" y="585"/>
      <point x="304.8" y="549.6" type="curve" smooth="yes"/>
      <point x="305" y="514"/>
      <point x="336" y="485"/>
    </contour>
    <contour>
      <point x="370.8" y="505.2" type="curve" smooth="yes"/>
      <point x="346" y="505"/>
      <point x="327" y="524"/>
      <point x="327.6" y="549.6" type="curve" smooth="yes"/>
      <point x="328" y="573"/>
      <point x="346" y="592"/>
      <point x="370.8" y="591.6" type="curve" smooth="yes"/>
      <point x="395" y="591"/>
      <point x="414" y="573"/>
      <point x="414" y="549.6" type="curve" smooth="yes"/>
      <point x="414" y="524"/>
      <point x="395" y="505"/>
    </contour>
    <contour>
      <point x="372" y="443" type="move" name="_top"/>
    </contour>
  </outline>
</glyph>
<glyph name="uni0394" format="1">
  <advance width="600"/>
  <unicode hex="0394"/>
  <note>
    uni0394
  </note>
  <outline>
    <contour>
      <point x="66" y="44" type="line"/>
      <point x="276" y="600" type="line"/>
      <point x="318" y="600" type="line"/>
      <point x="527" y="46" type="line"/>
      <point x="527" y="0" type="line"/>
      <point x="66" y="0" type="line"/>
    </contour>
    <contour>
      <point x="96" y="32" type="line"/>
      <point x="498" y="32" type="line"/>
      <point x="297" y="563.4" type="line"/>
    </contour>
  </outline>
</glyph>
<glyph name="emdash" format="1">
  <advance width="600"/>
  <unicode hex="2014"/>
  <note>
    emdash
  </note>
  <outline>
    <contour>
      <point x="0" y="258" type="line"/>
      <point x="600" y="258" type="line"/>
      <point x="600" y="225" type="line"/>
      <point x="0" y="225" type="line"/>
    </contour>
  </outline>
</glyph>
<glyph name="bullet" format="1">
  <advance width="600"/>
  <unicode hex="2022"/>
  <outline>
    <contour>
      <point x="302" y="196" type="curve" smooth="yes"/>
      <point x="357" y="196"/>
      <point x="403" y="244"/>
      <point x="403" y="297" type="curve" smooth="yes"/>
      <point x="403" y="353"/>
      <point x="358" y="399"/>
      <point x="302" y="399" type="curve" smooth="yes"/>
      <point x="246" y="399"/>
      <point x="198" y="352"/>
      <point x="198" y="297" type="curve" smooth="yes"/>
      <point x="198" y="244"/>
      <point x="246" y="196"/>
    </contour>
  </outline>
</glyph>
<glyph name="perthousand" format="1">
  <advance width="600"/>
  <unicode hex="2030"/>
  <outline>
    <contour>
      <point x="317" y="471" type="curve" smooth="yes"/>
      <point x="338" y="471"/>
      <point x="354" y="476"/>
      <point x="377" y="486" type="curve"/>
      <point x="23" y="-115" type="line"/>
      <point x="49" y="-130" type="line"/>
      <point x="472" y="586" type="line"/>
      <point x="446" y="601" type="line"/>
      <point x="406" y="536"/>
      <point x="368" y="499"/>
      <point x="318" y="503" type="curve" smooth="yes"/>
      <point x="304" y="504"/>
      <point x="289" y="507"/>
      <point x="273" y="515" type="curve"/>
      <point x="272" y="516" type="line"/>
      <point x="261" y="549"/>
      <point x="232" y="572"/>
      <point x="201" y="572" type="curve" smooth="yes"/>
      <point x="114" y="572"/>
      <point x="44" y="490"/>
      <point x="44" y="390" type="curve" smooth="yes"/>
      <point x="44" y="342"/>
      <point x="78" y="303"/>
      <point x="120" y="303" type="curve" smooth="yes"/>
      <point x="215" y="303"/>
      <point x="273" y="398"/>
      <point x="277" y="477" type="curve"/>
      <point x="280" y="479" type="line"/>
      <point x="293" y="475"/>
      <point x="304" y="471"/>
    </contour>
    <contour>
      <point x="246" y="486" type="curve" smooth="yes"/>
      <point x="246" y="402"/>
      <point x="189" y="334"/>
      <point x="120" y="334" type="curve" smooth="yes"/>
      <point x="96" y="334"/>
      <point x="75" y="359"/>
      <point x="75" y="390" type="curve" smooth="yes"/>
      <point x="75" y="474"/>
      <point x="132" y="541"/>
      <point x="201" y="541" type="curve" smooth="yes"/>
      <point x="226" y="541"/>
      <point x="246" y="517"/>
    </contour>
    <contour>
      <point x="399" y="257" type="curve" smooth="yes"/>
      <point x="313" y="257"/>
      <point x="242" y="173"/>
      <point x="242" y="73" type="curve" smooth="yes"/>
      <point x="242" y="26"/>
      <point x="276" y="-13"/>
      <point x="319" y="-13" type="curve" smooth="yes"/>
      <point x="405" y="-13"/>
      <point x="475" y="70"/>
      <point x="475" y="171" type="curve" smooth="yes"/>
      <point x="475" y="218"/>
      <point x="441" y="257"/>
    </contour>
    <contour>
      <point x="399" y="225" type="curve" smooth="yes"/>
      <point x="424" y="225"/>
      <point x="445" y="201"/>
      <point x="445" y="171" type="curve" smooth="yes"/>
      <point x="445" y="86"/>
      <point x="389" y="19"/>
      <point x="319" y="19" type="curve" smooth="yes"/>
      <point x="294" y="19"/>
      <point x="273" y="43"/>
      <point x="273" y="73" type="curve" smooth="yes"/>
      <point x="273" y="158"/>
      <point x="329" y="225"/>
    </contour>
    <contour>
      <point x="627" y="257" type="curve" smooth="yes"/>
      <point x="541" y="257"/>
      <point x="470" y="173"/>
      <point x="470" y="73" type="curve" smooth="yes"/>
      <point x="470" y="26"/>
      <point x="504" y="-13"/>
      <point x="547" y="-13" type="curve" smooth="yes"/>
      <point x="633" y="-13"/>
      <point x="703" y="70"/>
      <point x="703" y="171" type="curve" smooth="yes"/>
      <point x="703" y="218"/>
      <point x="669" y="257"/>
    </contour>
    <contour>
      <point x="627" y="225" type="curve" smooth="yes"/>
      <point x="652" y="225"/>
      <point x="673" y="201"/>
      <point x="673" y="171" type="curve" smooth="yes"/>
      <point x="673" y="86"/>
      <point x="617" y="19"/>
      <point x="547" y="19" type="curve" smooth="yes"/>
      <point x="522" y="19"/>
      <point x="501" y="43"/>
      <point x="501" y="73" type="curve" smooth="yes"/>
      <point x="501" y="158"/>
      <point x="557" y="225"/>
    </contour>
  </outline>
</glyph>
<glyph name="Euro" format="1">
  <advance width="600"/>
  <unicode hex="20AC"/>
  <outline>
    <contour>
      <point x="75.6" y="388.8" type="line"/>
      <point x="69.6" y="358.8" type="line"/>
      <point x="446.4" y="358.8" type="line"/>
      <point x="452.4" y="388.8" type="line"/>
    </contour>
    <contour>
      <point x="62.4" y="297.6" type="line"/>
      <point x="56.4" y="267.6" type="line"/>
      <point x="433.2" y="267.6" type="line"/>
      <point x="439.2" y="297.6" type="line"/>
    </contour>
    <component base="C" xOffset="99"/>
  </outline>
</glyph>
<glyph name="uni2116" format="1">
  <advance width="600"/>
  <unicode hex="2116"/>
  <outline>
    <contour>
      <point x="264" y="100" type="line"/>
      <point x="137" y="602" type="line"/>
      <point x="110" y="602" type="line"/>
      <point x="36" y="-13" type="line"/>
      <point x="65" y="-13" type="line"/>
      <point x="129" y="514" type="line"/>
      <point x="258" y="-13" type="line"/>
      <point x="287" y="-13" type="line"/>
      <point x="352" y="602" type="line"/>
      <point x="324" y="602" type="line"/>
    </contour>
    <contour>
      <point x="471" y="267" type="curve" smooth="yes"/>
      <point x="546" y="267"/>
      <point x="606" y="359"/>
      <point x="606" y="471" type="curve" smooth="yes"/>
      <point x="606" y="541"/>
      <point x="568" y="599"/>
      <point x="522" y="599" type="curve" smooth="yes"/>
      <point x="450" y="599"/>
      <point x="391" y="506"/>
      <point x="391" y="394" type="curve" smooth="yes"/>
      <point x="391" y="325"/>
      <point x="427" y="267"/>
    </contour>
    <contour>
      <point x="521" y="575" type="curve" smooth="yes"/>
      <point x="551" y="575"/>
      <point x="574" y="528"/>
      <point x="574" y="471" type="curve" smooth="yes"/>
      <point x="574" y="371"/>
      <point x="531" y="293"/>
      <point x="475" y="293" type="curve" smooth="yes"/>
      <point x="446" y="293"/>
      <point x="422" y="341"/>
      <point x="422" y="394" type="curve" smooth="yes"/>
      <point x="422" y="493"/>
      <point x="467" y="575"/>
    </contour>
    <contour>
      <point x="407" y="234" type="line"/>
      <point x="401" y="204" type="line"/>
      <point x="553" y="204" type="line"/>
      <point x="559" y="234" type="line"/>
    </contour>
  </outline>
</glyph>
<glyph name="arrowright" format="1">
  <advance width="600"/>
  <unicode hex="2192"/>
  <note>
    arrowright
  </note>
  <outline>
    <contour>
      <point x="586" y="224" type="line"/>
      <point x="490" y="271"/>
      <point x="423" y="328"/>
      <point x="385" y="396" type="curve"/>
      <point x="363" y="379" type="line"/>
      <point x="398" y="315"/>
      <point x="471" y="250"/>
      <point x="526" y="229" type="curve"/>
      <point x="14" y="228" type="line"/>
      <point x="14" y="198" type="line"/>
      <point x="526" y="199" type="line"/>
      <point x="471" y="178"/>
      <point x="398" y="113"/>
      <point x="363" y="49" type="curve"/>
      <point x="385" y="32" type="line"/>
      <point x="423" y="100"/>
      <point x="490" y="157"/>
      <point x="586" y="204" type="curve"/>
    </contour>
  </outline>
</glyph>
<glyph name="arrowdown" format="1">
  <advance width="600"/>
  <unicode hex="2193"/>
  <note>
    arrowdown
  </note>
  <outline>
    <contour>
      <point x="310" y="0" type="line"/>
      <point x="357" y="96"/>
      <point x="414" y="163"/>
      <point x="482" y="201" type="curve"/>
      <point x="465" y="223" type="line"/>
      <point x="401" y="188"/>
      <point x="336" y="115"/>
      <point x="315" y="60" type="curve"/>
      <point x="314" y="572" type="line"/>
      <point x="284" y="572" type="line"/>
      <point x="285" y="60" type="line"/>
      <point x="264" y="115"/>
      <point x="199" y="188"/>
      <point x="135" y="223" type="curve"/>
      <point x="118" y="201" type="line"/>
      <point x="186" y="163"/>
      <point x="243" y="96"/>
      <point x="290" y="0" type="curve"/>
    </contour>
  </outline>
</glyph>
<glyph name="uni2196" format="1">
  <advance width="600"/>
  <unicode hex="2196"/>
  <note>
    uni2196
  </note>
  <outline>
    <contour>
      <point x="99" y="402" type="line"/>
      <point x="134" y="301"/>
      <point x="140" y="213"/>
      <point x="119" y="138" type="curve"/>
      <point x="147" y="134" type="line"/>
      <point x="167" y="207"/>
      <point x="162" y="303"/>
      <point x="138" y="356" type="curve"/>
      <point x="499" y="-7" type="line"/>
      <point x="520" y="14" type="line"/>
      <point x="159" y="377" type="line"/>
      <point x="212" y="353"/>
      <point x="305" y="347"/>
      <point x="380" y="368" type="curve"/>
      <point x="377" y="395" type="line"/>
      <point x="301" y="373"/>
      <point x="213" y="380"/>
      <point x="113" y="416" type="curve"/>
    </contour>
  </outline>
</glyph>
<glyph name="uni2197" format="1">
  <advance width="600"/>
  <unicode hex="2197"/>
  <note>
    uni2197
  </note>
  <outline>
    <contour>
      <point x="487" y="417" type="line"/>
      <point x="387" y="381"/>
      <point x="299" y="374"/>
      <point x="223" y="396" type="curve"/>
      <point x="220" y="369" type="line"/>
      <point x="295" y="348"/>
      <point x="388" y="354"/>
      <point x="441" y="378" type="curve"/>
      <point x="80" y="15" type="line"/>
      <point x="101" y="-6" type="line"/>
      <point x="462" y="357" type="line"/>
      <point x="438" y="304"/>
      <point x="433" y="208"/>
      <point x="453" y="135" type="curve"/>
      <point x="481" y="139" type="line"/>
      <point x="460" y="214"/>
      <point x="466" y="302"/>
      <point x="501" y="403" type="curve"/>
    </contour>
  </outline>
</glyph>
<glyph name="uni2198" format="1">
  <advance width="600"/>
  <unicode hex="2198"/>
  <note>
    uni2198
  </note>
  <outline>
    <contour>
      <point x="504" y="17" type="line"/>
      <point x="468" y="117"/>
      <point x="461" y="205"/>
      <point x="483" y="281" type="curve"/>
      <point x="456" y="284" type="line"/>
      <point x="435" y="209"/>
      <point x="441" y="116"/>
      <point x="465" y="63" type="curve"/>
      <point x="102" y="424" type="line"/>
      <point x="81" y="403" type="line"/>
      <point x="444" y="42" type="line"/>
      <point x="391" y="66"/>
      <point x="295" y="71"/>
      <point x="222" y="51" type="curve"/>
      <point x="226" y="23" type="line"/>
      <point x="301" y="44"/>
      <point x="389" y="38"/>
      <point x="490" y="3" type="curve"/>
    </contour>
  </outline>
</glyph>
<glyph name="uni2199" format="1">
  <advance width="600"/>
  <unicode hex="2199"/>
  <note>
    uni2199
  </note>
  <outline>
    <contour>
      <point x="110" y="3" type="line"/>
      <point x="211" y="38"/>
      <point x="299" y="44"/>
      <point x="374" y="23" type="curve"/>
      <point x="378" y="51" type="line"/>
      <point x="305" y="71"/>
      <point x="209" y="66"/>
      <point x="156" y="42" type="curve"/>
      <point x="519" y="403" type="line"/>
      <point x="498" y="424" type="line"/>
      <point x="135" y="63" type="line"/>
      <point x="159" y="116"/>
      <point x="165" y="209"/>
      <point x="144" y="284" type="curve"/>
      <point x="117" y="281" type="line"/>
      <point x="139" y="205"/>
      <point x="132" y="117"/>
      <point x="96" y="17" type="curve"/>
    </contour>
  </outline>
</glyph>
<glyph name="summation" format="1">
  <advance width="600"/>
  <unicode hex="2211"/>
  <note>
    summation
  </note>
  <outline>
    <contour>
      <point x="301" y="215" type="line"/>
      <point x="82" y="560" type="line"/>
      <point x="82" y="590" type="line"/>
      <point x="546" y="590" type="line"/>
      <point x="546" y="560" type="line"/>
      <point x="118" y="560" type="line"/>
      <point x="338" y="215" type="line"/>
      <point x="117" y="-130" type="line"/>
      <point x="546" y="-130" type="line"/>
      <point x="546" y="-160" type="line"/>
      <point x="82" y="-160" type="line"/>
      <point x="82" y="-130" type="line"/>
    </contour>
  </outline>
</glyph>
<glyph name="minus" format="1">
  <advance width="600"/>
  <unicode hex="2212"/>
  <note>
    minus
  </note>
  <outline>
    <contour>
      <point x="517" y="200" type="line"/>
      <point x="87" y="200" type="line"/>
      <point x="87" y="230" type="line"/>
      <point x="517" y="230" type="line"/>
    </contour>
  </outline>
</glyph>
<glyph name="radical" format="1">
  <advance width="600"/>
  <unicode hex="221A"/>
  <note>
    radical
  </note>
  <outline>
    <contour>
      <point x="120" y="205" type="line"/>
      <point x="281" y="262" type="line"/>
      <point x="373" y="-131" type="line"/>
      <point x="546" y="603" type="line"/>
      <point x="575" y="596" type="line"/>
      <point x="397" y="-160" type="line"/>
      <point x="348" y="-160" type="line"/>
      <point x="259" y="223" type="line"/>
      <point x="130" y="177" type="line"/>
    </contour>
  </outline>
</glyph>
<glyph name="infinity" format="1">
  <advance width="600"/>
  <unicode hex="221E"/>
  <note>
    infinity
  </note>
  <outline>
    <contour>
      <point x="68" y="25" type="curve" smooth="yes"/>
      <point x="95" y="0"/>
      <point x="127" y="-13"/>
      <point x="163" y="-13" type="curve" smooth="yes"/>
      <point x="182" y="-13"/>
      <point x="200" y="-8"/>
      <point x="217" y="3" type="curve" smooth="yes"/>
      <point x="252" y="24"/>
      <point x="264" y="42"/>
      <point x="300" y="89" type="curve"/>
      <point x="318" y="66"/>
      <point x="332" y="48"/>
      <point x="342" y="37" type="curve"/>
      <point x="362" y="13"/>
      <point x="400" y="-13"/>
      <point x="437" y="-13" type="curve" smooth="yes"/>
      <point x="509" y="-13"/>
      <point x="573" y="46"/>
      <point x="573" y="115" type="curve" smooth="yes"/>
      <point x="573" y="184"/>
      <point x="512" y="245"/>
      <point x="437" y="245" type="curve" smooth="yes"/>
      <point x="386" y="245"/>
      <point x="347" y="208"/>
      <point x="300" y="141" type="curve"/>
      <point x="253" y="208"/>
      <point x="214" y="245"/>
      <point x="163" y="245" type="curve" smooth="yes"/>
      <point x="88" y="245"/>
      <point x="27" y="184"/>
      <point x="27" y="115" type="curve" smooth="yes"/>
      <point x="27" y="80"/>
      <point x="41" y="50"/>
    </contour>
    <contour>
      <point x="57" y="115" type="curve" smooth="yes"/>
      <point x="57" y="170"/>
      <point x="108" y="215"/>
      <point x="164" y="215" type="curve" smooth="yes"/>
      <point x="178" y="215"/>
      <point x="192" y="210"/>
      <point x="207" y="200" type="curve"/>
      <point x="236" y="179"/>
      <point x="251" y="159"/>
      <point x="282" y="116" type="curve"/>
      <point x="267" y="95"/>
      <point x="254" y="78"/>
      <point x="244" y="66" type="curve" smooth="yes"/>
      <point x="224" y="42"/>
      <point x="192" y="17"/>
      <point x="164" y="17" type="curve" smooth="yes"/>
      <point x="109" y="17"/>
      <point x="57" y="63"/>
    </contour>
    <contour>
      <point x="318" y="116" type="curve"/>
      <point x="333" y="137"/>
      <point x="346" y="154"/>
      <point x="356" y="166" type="curve" smooth="yes"/>
      <point x="376" y="190"/>
      <point x="408" y="215"/>
      <point x="436" y="215" type="curve" smooth="yes"/>
      <point x="492" y="215"/>
      <point x="543" y="170"/>
      <point x="543" y="115" type="curve" smooth="yes"/>
      <point x="543" y="63"/>
      <point x="491" y="17"/>
      <point x="436" y="17" type="curve" smooth="yes"/>
      <point x="422" y="17"/>
      <point x="408" y="22"/>
      <point x="393" y="33" type="curve" smooth="yes"/>
      <point x="364" y="53"/>
      <point x="349" y="73"/>
    </contour>
  </outline>
</glyph>
<glyph name="approxequal" format="1">
  <advance width="600"/>
  <unicode hex="2248"/>
  <note>
    approxequal
  </note>
  <outline>
    <contour>
      <point x="398" y="239" type="curve" smooth="yes"/>
      <point x="467" y="239"/>
      <point x="506" y="293"/>
      <point x="506" y="396" type="curve" smooth="yes"/>
      <point x="506" y="430" type="line"/>
      <point x="476" y="430" type="line"/>
      <point x="476" y="396" type="line" smooth="yes"/>
      <point x="476" y="315"/>
      <point x="446" y="269"/>
      <point x="398" y="269" type="curve" smooth="yes"/>
      <point x="359" y="269"/>
      <point x="341" y="288"/>
      <point x="317" y="345" type="curve" smooth="yes"/>
      <point x="289" y="410"/>
      <point x="261" y="443"/>
      <point x="204" y="443" type="curve" smooth="yes"/>
      <point x="135" y="443"/>
      <point x="91" y="386"/>
      <point x="91" y="285" type="curve" smooth="yes"/>
      <point x="91" y="250" type="line"/>
      <point x="121" y="250" type="line"/>
      <point x="121" y="285" type="line" smooth="yes"/>
      <point x="121" y="364"/>
      <point x="156" y="413"/>
      <point x="204" y="413" type="curve" smooth="yes"/>
      <point x="240" y="413"/>
      <point x="262" y="392"/>
      <point x="290" y="331" type="curve" smooth="yes"/>
      <point x="318" y="270"/>
      <point x="346" y="239"/>
    </contour>
    <contour>
      <point x="398" y="17" type="curve" smooth="yes"/>
      <point x="467" y="17"/>
      <point x="506" y="71"/>
      <point x="506" y="174" type="curve" smooth="yes"/>
      <point x="506" y="208" type="line"/>
      <point x="476" y="208" type="line"/>
      <point x="476" y="174" type="line" smooth="yes"/>
      <point x="476" y="93"/>
      <point x="446" y="47"/>
      <point x="398" y="47" type="curve" smooth="yes"/>
      <point x="359" y="47"/>
      <point x="341" y="66"/>
      <point x="317" y="123" type="curve" smooth="yes"/>
      <point x="289" y="188"/>
      <point x="261" y="221"/>
      <point x="204" y="221" type="curve" smooth="yes"/>
      <point x="135" y="221"/>
      <point x="91" y="164"/>
      <point x="91" y="63" type="curve" smooth="yes"/>
      <point x="91" y="28" type="line"/>
      <point x="121" y="28" type="line"/>
      <point x="121" y="63" type="line" smooth="yes"/>
      <point x="121" y="142"/>
      <point x="156" y="191"/>
      <point x="204" y="191" type="curve" smooth="yes"/>
      <point x="240" y="191"/>
      <point x="262" y="170"/>
      <point x="290" y="109" type="curve" smooth="yes"/>
      <point x="318" y="48"/>
      <point x="346" y="17"/>
    </contour>
  </outline>
</glyph>
<glyph name="notequal" format="1">
  <advance width="600"/>
  <unicode hex="2260"/>
  <note>
    notequal
  </note>
  <outline>
    <contour>
      <point x="531" y="296" type="line"/>
      <point x="531" y="326" type="line"/>
      <point x="358" y="326" type="line"/>
      <point x="391" y="416" type="line"/>
      <point x="362" y="426" type="line"/>
      <point x="326" y="326" type="line"/>
      <point x="69" y="326" type="line"/>
      <point x="69" y="296" type="line"/>
      <point x="315" y="296" type="line"/>
      <point x="257" y="134" type="line"/>
      <point x="69" y="134" type="line"/>
      <point x="69" y="104" type="line"/>
      <point x="246" y="104" type="line"/>
      <point x="208" y="-2" type="line"/>
      <point x="236" y="-13" type="line"/>
      <point x="278" y="104" type="line"/>
      <point x="531" y="104" type="line"/>
      <point x="531" y="134" type="line"/>
      <point x="289" y="134" type="line"/>
      <point x="348" y="296" type="line"/>
    </contour>
  </outline>
</glyph>
<glyph name="greaterequal" format="1">
  <advance width="600"/>
  <unicode hex="2265"/>
  <outline>
    <contour>
      <point x="86" y="371" type="line"/>
      <point x="505" y="526" type="line"/>
      <point x="515" y="499" type="line"/>
      <point x="115" y="352" type="line"/>
      <point x="515" y="205" type="line"/>
      <point x="505" y="178" type="line"/>
      <point x="86" y="333" type="line"/>
    </contour>
    <contour>
      <point x="515" y="34" type="line"/>
      <point x="85" y="34" type="line"/>
      <point x="85" y="64" type="line"/>
      <point x="515" y="64" type="line"/>
    </contour>
  </outline>
</glyph>
<glyph name="Homme" format="1">
  <advance width="600"/>
  <note>
    Homme
  </note>
  <outline>
    <contour>
      <point x="575" y="576" type="line"/>
      <point x="475" y="540"/>
      <point x="387" y="533"/>
      <point x="311" y="555" type="curve"/>
      <point x="308" y="528" type="line"/>
      <point x="383" y="507"/>
      <point x="476" y="513"/>
      <point x="529" y="537" type="curve"/>
      <point x="409" y="416" type="line"/>
      <point x="375" y="434"/>
      <point x="339" y="443"/>
      <point x="301" y="443" type="curve" smooth="yes"/>
      <point x="174" y="443"/>
      <point x="72" y="341"/>
      <point x="72" y="216" type="curve" smooth="yes"/>
      <point x="72" y="88"/>
      <point x="174" y="-13"/>
      <point x="301" y="-13" type="curve" smooth="yes"/>
      <point x="428" y="-13"/>
      <point x="529" y="88"/>
      <point x="529" y="216" type="curve" smooth="yes"/>
      <point x="529" y="291"/>
      <point x="494" y="359"/>
      <point x="435" y="400" type="curve"/>
      <point x="550" y="516" type="line"/>
      <point x="526" y="463"/>
      <point x="521" y="367"/>
      <point x="541" y="294" type="curve"/>
      <point x="569" y="298" type="line"/>
      <point x="548" y="373"/>
      <point x="554" y="461"/>
      <point x="589" y="562" type="curve"/>
    </contour>
    <contour>
      <point x="499" y="216" type="curve" smooth="yes"/>
      <point x="499" y="105"/>
      <point x="410" y="17"/>
      <point x="301" y="17" type="curve" smooth="yes"/>
      <point x="190" y="17"/>
      <point x="102" y="105"/>
      <point x="102" y="216" type="curve" smooth="yes"/>
      <point x="102" y="325"/>
      <point x="190" y="413"/>
      <point x="301" y="413" type="curve" smooth="yes"/>
      <point x="410" y="413"/>
      <point x="499" y="325"/>
    </contour>
  </outline>
</glyph>
<glyph name="Lslash.ss01" format="1">
  <advance width="600"/>
  <outline>
    <contour>
      <point x="360" y="378" type="line"/>
      <point x="72" y="236.4" type="line"/>
      <point x="84" y="210" type="line"/>
      <point x="372" y="351.6" type="line"/>
    </contour>
    <component base="L.ss01"/>
  </outline>
</glyph>
<glyph name="MadameMonsieur" format="1">
  <advance width="600"/>
  <outline>
    <contour>
      <point x="535.2" y="102" type="line"/>
      <point x="514" y="73"/>
      <point x="498" y="51"/>
      <point x="484.8" y="37.2" type="curve" smooth="yes"/>
      <point x="472" y="23"/>
      <point x="461" y="16"/>
      <point x="451.2" y="15.6" type="curve" smooth="yes"/>
      <point x="434" y="15"/>
      <point x="428" y="34"/>
      <point x="434.4" y="69.6" type="curve" smooth="yes"/>
      <point x="525.6" y="590.4" type="line"/>
      <point x="495.6" y="590.4" type="line"/>
      <point x="296.4" y="123.6" type="line"/>
      <point x="379.2" y="590.4" type="line"/>
      <point x="349.2" y="590.4" type="line"/>
      <point x="226.8" y="284.4" type="line" smooth="yes"/>
      <point x="182" y="173"/>
      <point x="152" y="101"/>
      <point x="133.2" y="68.4" type="curve" smooth="yes"/>
      <point x="113" y="33"/>
      <point x="91" y="17"/>
      <point x="64.8" y="16.8" type="curve" smooth="yes"/>
      <point x="13" y="16"/>
      <point x="-10" y="72"/>
      <point x="13.2" y="123.6" type="curve"/>
      <point x="16" y="94"/>
      <point x="34" y="78"/>
      <point x="56.4" y="76.8" type="curve" smooth="yes"/>
      <point x="81" y="75"/>
      <point x="109" y="97"/>
      <point x="110.4" y="126" type="curve" smooth="yes"/>
      <point x="112" y="155"/>
      <point x="82" y="181"/>
      <point x="55.2" y="181.2" type="curve" smooth="yes"/>
      <point x="11" y="182"/>
      <point x="-22" y="135"/>
      <point x="-22.8" y="84" type="curve" smooth="yes"/>
      <point x="-24" y="29"/>
      <point x="11" y="-15"/>
      <point x="62.4" y="-13.2" type="curve" smooth="yes"/>
      <point x="67" y="-13"/>
      <point x="72" y="-13"/>
      <point x="76.8" y="-12" type="curve"/>
      <point x="106" y="-9"/>
      <point x="130" y="9"/>
      <point x="151.2" y="42" type="curve" smooth="yes"/>
      <point x="168" y="68"/>
      <point x="203" y="146"/>
      <point x="253.2" y="273.6" type="curve" smooth="yes"/>
      <point x="324" y="452.4" type="line"/>
      <point x="242.4" y="0" type="line"/>
      <point x="273.6" y="0" type="line"/>
      <point x="475.2" y="471.6" type="line"/>
      <point x="405.6" y="75.6" type="line"/>
      <point x="394" y="19"/>
      <point x="415" y="-14"/>
      <point x="446.4" y="-13.2" type="curve" smooth="yes"/>
      <point x="459" y="-13"/>
      <point x="471" y="-11"/>
      <point x="482.4" y="-3.6" type="curve" smooth="yes"/>
      <point x="496" y="5"/>
      <point x="501" y="8"/>
      <point x="512.4" y="24" type="curve"/>
      <point x="519" y="31"/>
      <point x="524" y="37"/>
      <point x="526.8" y="40.8" type="curve"/>
      <point x="533" y="48"/>
      <point x="552" y="76"/>
      <point x="559.2" y="85.2" type="curve"/>
    </contour>
  </outline>
</glyph>
<glyph name="Swash" format="1">
  <advance width="600"/>
  <outline>
    <contour>
      <point x="369.6" y="590.4" type="line" smooth="yes"/>
      <point x="251" y="590"/>
      <point x="207" y="518"/>
      <point x="240" y="468" type="curve" smooth="yes"/>
      <point x="258" y="440.4" type="line"/>
      <point x="280.8" y="460.8" type="line"/>
      <point x="265.2" y="484.8" type="line" smooth="yes"/>
      <point x="244" y="518"/>
      <point x="285" y="560"/>
      <point x="369.6" y="560.4" type="curve" smooth="yes"/>
      <point x="412.8" y="560.4" type="line"/>
      <point x="412.8" y="590.4" type="line"/>
    </contour>
  </outline>
</glyph>
